
<svg version="1.1" style="font-family:&quot;lucida grande&quot;, &quot;lucida sans unicode&quot;, arial, helvetica, sans-serif;font-size:12px;" xmlns="http://www.w3.org/2000/svg" viewBox="0 0 584 400">
	<desc>Created with Highcharts 4.2.4
	</desc>
	<defs>
		<clipPath id="highcharts-1">
			<rect x="0" y="0" width="504" height="284">
			</rect>
		</clipPath>
	</defs>
	<rect x="0" y="0" width="584" height="400" fill="#FFFFFF" class=" highcharts-background" stroke="transparent">
	</rect>
	<g class="highcharts-grid">
	</g>
	<g class="highcharts-grid">
		<path fill="none" d="M 70 345.5 L 574 345.5" stroke="#D8D8D8" stroke-width="1" opacity="1">
		</path>
		<path fill="none" d="M 70 298.5 L 574 298.5" stroke="#D8D8D8" stroke-width="1" opacity="1">
		</path>
		<path fill="none" d="M 70 250.5 L 574 250.5" stroke="#D8D8D8" stroke-width="1" opacity="1">
		</path>
		<path fill="none" d="M 70 203.5 L 574 203.5" stroke="#D8D8D8" stroke-width="1" opacity="1">
		</path>
		<path fill="none" d="M 70 156.5 L 574 156.5" stroke="#D8D8D8" stroke-width="1" opacity="1">
		</path>
		<path fill="none" d="M 70 108.5 L 574 108.5" stroke="#D8D8D8" stroke-width="1" opacity="1">
		</path>
		<path fill="none" d="M 70 60.5 L 574 60.5" stroke="#D8D8D8" stroke-width="1" opacity="1">
		</path>
	</g>
	<g class="highcharts-axis">
		<path fill="none" d="M 69.5 345 L 69.5 355" stroke="#C0D0E0" stroke-width="1" opacity="1">
		</path>
		<path fill="none" d="M 153.5 345 L 153.5 355" stroke="#C0D0E0" stroke-width="1" opacity="1">
		</path>
		<path fill="none" d="M 237.5 345 L 237.5 355" stroke="#C0D0E0" stroke-width="1" opacity="1">
		</path>
		<path fill="none" d="M 321.5 345 L 321.5 355" stroke="#C0D0E0" stroke-width="1" opacity="1">
		</path>
		<path fill="none" d="M 405.5 345 L 405.5 355" stroke="#C0D0E0" stroke-width="1" opacity="1">
		</path>
		<path fill="none" d="M 489.5 345 L 489.5 355" stroke="#C0D0E0" stroke-width="1" opacity="1">
		</path>
		<path fill="none" d="M 574.5 345 L 574.5 355" stroke="#C0D0E0" stroke-width="1" opacity="1">
		</path>
		<text x="322" text-anchor="middle" transform="translate(0,0)" class=" highcharts-xaxis-title" style="color:#707070;fill:#707070;" y="382.9">
			<tspan>Height (cm)
			</tspan>
		</text>
		<path fill="none" d="M 70 345.5 L 574 345.5" stroke="#C0D0E0" stroke-width="1">
		</path>
	</g>
	<g class="highcharts-axis">
		<text x="24.1" text-anchor="middle" transform="translate(0,0) rotate(270 24.1 203)" class=" highcharts-yaxis-title" style="color:#707070;fill:#707070;" y="203">
			<tspan>Weight (kg)
			</tspan>
		</text>
	</g>
	<g class="highcharts-series-group">
		<g class="highcharts-series highcharts-series-0 highcharts-tracker" transform="translate(70,61) scale(1 1)" style="" clip-path="url(#highcharts-1)">
		</g>
		<g class="highcharts-markers highcharts-series-0 highcharts-tracker" transform="translate(70,61) scale(1 1)" style="" clip-path="none">
			<path fill="rgb(223, 83, 83)" fill-opacity=" .5" d="M 199 167.0 C 205.6 167.0 205.6 177.0 199 177.0 C 192.3 177.0 192.3 167.0 199 167.0 Z">
			</path>
			<path fill="rgb(223, 83, 83)" fill-opacity=" .5" d="M 285 169.1 C 291.6 169.1 291.6 179.1 285 179.1 C 278.3 179.1 278.3 169.1 285 169.1 Z">
			</path>
			<path fill="rgb(223, 83, 83)" fill-opacity=" .5" d="M 173 211.3 C 179.6 211.3 179.6 221.3 173 221.3 C 166.3 221.3 166.3 211.3 173 211.3 Z">
			</path>
			<path fill="rgb(223, 83, 83)" fill-opacity=" .5" d="M 204 194.9 C 210.6 194.9 210.6 204.9 204 204.9 C 197.3 204.9 197.3 194.9 204 194.9 Z">
			</path>
			<path fill="rgb(223, 83, 83)" fill-opacity=" .5" d="M 306 156.4 C 312.6 156.4 312.6 166.4 306 166.4 C 299.3 166.4 299.3 156.4 306 156.4 Z">
			</path>
			<path fill="rgb(223, 83, 83)" fill-opacity=" .5" d="M 147 144.5 C 153.6 144.5 153.6 154.5 147 154.5 C 140.3 154.5 140.3 144.5 147 144.5 Z">
			</path>
			<path fill="rgb(223, 83, 83)" fill-opacity=" .5" d="M 189 181.0 C 195.6 181.0 195.6 191.0 189 191.0 C 182.3 191.0 182.3 181.0 189 181.0 Z">
			</path>
			<path fill="rgb(223, 83, 83)" fill-opacity=" .5" d="M 274 164.9 C 280.6 164.9 280.6 174.9 274 174.9 C 267.3 174.9 267.3 164.9 274 164.9 Z">
			</path>
			<path fill="rgb(223, 83, 83)" fill-opacity=" .5" d="M 168 147.6 C 174.6 147.6 174.6 157.6 168 157.6 C 161.3 157.6 161.3 147.6 168 147.6 Z">
			</path>
			<path fill="rgb(223, 83, 83)" fill-opacity=" .5" d="M 247 167.0 C 253.6 167.0 253.6 177.0 247 177.0 C 240.3 177.0 240.3 167.0 247 167.0 Z">
			</path>
			<path fill="rgb(223, 83, 83)" fill-opacity=" .5" d="M 296 175.8 C 302.6 175.8 302.6 185.8 296 185.8 C 289.3 185.8 289.3 175.8 296 175.8 Z">
			</path>
			<path fill="rgb(223, 83, 83)" fill-opacity=" .5" d="M 168 174.6 C 174.6 174.6 174.6 184.6 168 184.6 C 161.3 184.6 161.3 174.6 168 174.6 Z">
			</path>
			<path fill="rgb(223, 83, 83)" fill-opacity=" .5" d="M 247 190.7 C 253.6 190.7 253.6 200.7 247 200.7 C 240.3 200.7 240.3 190.7 247 190.7 Z">
			</path>
			<path fill="rgb(223, 83, 83)" fill-opacity=" .5" d="M 83 215.5 C 89.6 215.5 89.6 225.5 83 225.5 C 76.3 225.5 76.3 215.5 83 215.5 Z">
			</path>
			<path fill="rgb(223, 83, 83)" fill-opacity=" .5" d="M 136 184.3 C 142.6 184.3 142.6 194.3 136 194.3 C 129.3 194.3 129.3 184.3 136 184.3 Z">
			</path>
			<path fill="rgb(223, 83, 83)" fill-opacity=" .5" d="M 178 182.2 C 184.6 182.2 184.6 192.2 178 192.2 C 171.3 192.2 171.3 182.2 178 182.2 Z">
			</path>
			<path fill="rgb(223, 83, 83)" fill-opacity=" .5" d="M 189 175.8 C 195.6 175.8 195.6 185.8 189 185.8 C 182.3 185.8 182.3 175.8 189 175.8 Z">
			</path>
			<path fill="rgb(223, 83, 83)" fill-opacity=" .5" d="M 285 194.9 C 291.6 194.9 291.6 204.9 285 204.9 C 278.3 204.9 278.3 194.9 285 194.9 Z">
			</path>
			<path fill="rgb(223, 83, 83)" fill-opacity=" .5" d="M 189 181.0 C 195.6 181.0 195.6 191.0 189 191.0 C 182.3 191.0 182.3 181.0 189 181.0 Z">
			</path>
			<path fill="rgb(223, 83, 83)" fill-opacity=" .5" d="M 285 152.1 C 291.6 152.1 291.6 162.1 285 162.1 C 278.3 162.1 278.3 152.1 285 152.1 Z">
			</path>
			<path fill="rgb(223, 83, 83)" fill-opacity=" .5" d="M 168 184.3 C 174.6 184.3 174.6 194.3 168 194.3 C 161.3 194.3 161.3 184.3 168 184.3 Z">
			</path>
			<path fill="rgb(223, 83, 83)" fill-opacity=" .5" d="M 210 199.4 C 216.6 199.4 216.6 209.4 210 209.4 C 203.3 209.4 203.3 199.4 210 199.4 Z">
			</path>
			<path fill="rgb(223, 83, 83)" fill-opacity=" .5" d="M 147 197.3 C 153.6 197.3 153.6 207.3 147 207.3 C 140.3 207.3 140.3 197.3 147 197.3 Z">
			</path>
			<path fill="rgb(223, 83, 83)" fill-opacity=" .5" d="M 263 199.9 C 269.6 199.9 269.6 209.9 263 209.9 C 256.3 209.9 256.3 199.9 263 199.9 Z">
			</path>
			<path fill="rgb(223, 83, 83)" fill-opacity=" .5" d="M 296 175.8 C 302.6 175.8 302.6 185.8 296 185.8 C 289.3 185.8 289.3 175.8 296 175.8 Z">
			</path>
			<path fill="rgb(223, 83, 83)" fill-opacity=" .5" d="M 189 132.7 C 195.6 132.7 195.6 142.7 189 142.7 C 182.3 142.7 182.3 132.7 189 132.7 Z">
			</path>
			<path fill="rgb(223, 83, 83)" fill-opacity=" .5" d="M 125 188.5 C 131.6 188.5 131.6 198.5 125 198.5 C 118.3 198.5 118.3 188.5 125 188.5 Z">
			</path>
			<path fill="rgb(223, 83, 83)" fill-opacity=" .5" d="M 231 181.0 C 237.6 181.0 237.6 191.0 231 191.0 C 224.3 191.0 224.3 181.0 231 181.0 Z">
			</path>
			<path fill="rgb(223, 83, 83)" fill-opacity=" .5" d="M 231 155.2 C 237.6 155.2 237.6 165.2 231 165.2 C 224.3 165.2 224.3 155.2 231 155.2 Z">
			</path>
			<path fill="rgb(223, 83, 83)" fill-opacity=" .5" d="M 231 173.6 C 237.6 173.6 237.6 183.6 231 183.6 C 224.3 183.6 224.3 173.6 231 173.6 Z">
			</path>
			<path fill="rgb(223, 83, 83)" fill-opacity=" .5" d="M 168 135.8 C 174.6 135.8 174.6 145.8 168 145.8 C 161.3 145.8 161.3 135.8 168 135.8 Z">
			</path>
			<path fill="rgb(223, 83, 83)" fill-opacity=" .5" d="M 253 143.3 C 259.6 143.3 259.6 153.3 253 153.3 C 246.3 153.3 246.3 143.3 253 143.3 Z">
			</path>
			<path fill="rgb(223, 83, 83)" fill-opacity=" .5" d="M 285 194.9 C 291.6 194.9 291.6 204.9 285 204.9 C 278.3 204.9 278.3 194.9 285 194.9 Z">
			</path>
			<path fill="rgb(223, 83, 83)" fill-opacity=" .5" d="M 210 79.9 C 216.6 79.9 216.6 89.9 210 89.9 C 203.3 89.9 203.3 79.9 210 79.9 Z">
			</path>
			<path fill="rgb(223, 83, 83)" fill-opacity=" .5" d="M 168 195.2 C 174.6 195.2 174.6 205.2 168 205.2 C 161.3 205.2 161.3 195.2 168 195.2 Z">
			</path>
			<path fill="rgb(223, 83, 83)" fill-opacity=" .5" d="M 295 189.7 C 301.6 189.7 301.6 199.7 295 199.7 C 288.3 199.7 288.3 189.7 295 189.7 Z">
			</path>
			<path fill="rgb(223, 83, 83)" fill-opacity=" .5" d="M 295 178.8 C 301.6 178.8 301.6 188.8 295 188.8 C 288.3 188.8 288.3 178.8 295 178.8 Z">
			</path>
			<path fill="rgb(223, 83, 83)" fill-opacity=" .5" d="M 253 152.1 C 259.6 152.1 259.6 162.1 253 162.1 C 246.3 162.1 246.3 152.1 253 152.1 Z">
			</path>
			<path fill="rgb(223, 83, 83)" fill-opacity=" .5" d="M 242 177.2 C 248.6 177.2 248.6 187.2 242 187.2 C 235.3 187.2 235.3 177.2 242 177.2 Z">
			</path>
			<path fill="rgb(223, 83, 83)" fill-opacity=" .5" d="M 104 167.0 C 110.6 167.0 110.6 177.0 104 177.0 C 97.3 177.0 97.3 167.0 104 167.0 Z">
			</path>
			<path fill="rgb(223, 83, 83)" fill-opacity=" .5" d="M 189 169.1 C 195.6 169.1 195.6 179.1 189 179.1 C 182.3 179.1 182.3 169.1 189 169.1 Z">
			</path>
			<path fill="rgb(223, 83, 83)" fill-opacity=" .5" d="M 210 122.0 C 216.6 122.0 216.6 132.0 210 132.0 C 203.3 132.0 203.3 122.0 210 122.0 Z">
			</path>
			<path fill="rgb(223, 83, 83)" fill-opacity=" .5" d="M 231 177.9 C 237.6 177.9 237.6 187.9 231 187.9 C 224.3 187.9 224.3 177.9 231 177.9 Z">
			</path>
			<path fill="rgb(223, 83, 83)" fill-opacity=" .5" d="M 231 201.6 C 237.6 201.6 237.6 211.6 231 211.6 C 224.3 211.6 224.3 201.6 231 201.6 Z">
			</path>
			<path fill="rgb(223, 83, 83)" fill-opacity=" .5" d="M 178 159.4 C 184.6 159.4 184.6 169.4 178 169.4 C 171.3 169.4 171.3 159.4 178 159.4 Z">
			</path>
			<path fill="rgb(223, 83, 83)" fill-opacity=" .5" d="M 253 186.4 C 259.6 186.4 259.6 196.4 253 196.4 C 246.3 196.4 246.3 186.4 253 186.4 Z">
			</path>
			<path fill="rgb(223, 83, 83)" fill-opacity=" .5" d="M 253 197.3 C 259.6 197.3 259.6 207.3 253 207.3 C 246.3 207.3 246.3 197.3 253 197.3 Z">
			</path>
			<path fill="rgb(223, 83, 83)" fill-opacity=" .5" d="M 253 175.8 C 259.6 175.8 259.6 185.8 253 185.8 C 246.3 185.8 246.3 175.8 253 175.8 Z">
			</path>
			<path fill="rgb(223, 83, 83)" fill-opacity=" .5" d="M 210 182.2 C 216.6 182.2 216.6 192.2 210 192.2 C 203.3 192.2 203.3 182.2 210 182.2 Z">
			</path>
			<path fill="rgb(223, 83, 83)" fill-opacity=" .5" d="M 274 159.4 C 280.6 159.4 280.6 169.4 274 169.4 C 267.3 169.4 267.3 159.4 274 159.4 Z">
			</path>
			<path fill="rgb(223, 83, 83)" fill-opacity=" .5" d="M 210 134.8 C 216.6 134.8 216.6 144.8 210 144.8 C 203.3 144.8 203.3 134.8 210 134.8 Z">
			</path>
			<path fill="rgb(223, 83, 83)" fill-opacity=" .5" d="M 253 166.1 C 259.6 166.1 259.6 176.1 253 176.1 C 246.3 176.1 246.3 166.1 253 166.1 Z">
			</path>
			<path fill="rgb(223, 83, 83)" fill-opacity=" .5" d="M 104 214.3 C 110.6 214.3 110.6 224.3 104 224.3 C 97.3 224.3 97.3 214.3 104 214.3 Z">
			</path>
			<path fill="rgb(223, 83, 83)" fill-opacity=" .5" d="M 189 197.3 C 195.6 197.3 195.6 207.3 189 207.3 C 182.3 207.3 182.3 197.3 189 197.3 Z">
			</path>
			<path fill="rgb(223, 83, 83)" fill-opacity=" .5" d="M 147 175.8 C 153.6 175.8 153.6 185.8 147 185.8 C 140.3 185.8 140.3 175.8 147 175.8 Z">
			</path>
			<path fill="rgb(223, 83, 83)" fill-opacity=" .5" d="M 168 186.7 C 174.6 186.7 174.6 196.7 168 196.7 C 161.3 196.7 161.3 186.7 168 186.7 Z">
			</path>
			<path fill="rgb(223, 83, 83)" fill-opacity=" .5" d="M 173 194.0 C 179.6 194.0 179.6 204.0 173 204.0 C 166.3 204.0 166.3 194.0 173 194.0 Z">
			</path>
			<path fill="rgb(223, 83, 83)" fill-opacity=" .5" d="M 189 197.3 C 195.6 197.3 195.6 207.3 189 207.3 C 182.3 207.3 182.3 197.3 189 197.3 Z">
			</path>
			<path fill="rgb(223, 83, 83)" fill-opacity=" .5" d="M 231 197.3 C 237.6 197.3 237.6 207.3 231 207.3 C 224.3 207.3 224.3 197.3 231 197.3 Z">
			</path>
			<path fill="rgb(223, 83, 83)" fill-opacity=" .5" d="M 189 159.4 C 195.6 159.4 195.6 169.4 189 169.4 C 182.3 169.4 182.3 159.4 189 159.4 Z">
			</path>
			<path fill="rgb(223, 83, 83)" fill-opacity=" .5" d="M 253 196.1 C 259.6 196.1 259.6 206.1 253 206.1 C 246.3 206.1 246.3 196.1 253 196.1 Z">
			</path>
			<path fill="rgb(223, 83, 83)" fill-opacity=" .5" d="M 168 199.9 C 174.6 199.9 174.6 209.9 168 209.9 C 161.3 209.9 161.3 199.9 168 199.9 Z">
			</path>
			<path fill="rgb(223, 83, 83)" fill-opacity=" .5" d="M 162 200.4 C 168.6 200.4 168.6 210.4 162 210.4 C 155.3 210.4 155.3 200.4 162 200.4 Z">
			</path>
			<path fill="rgb(223, 83, 83)" fill-opacity=" .5" d="M 296 175.8 C 302.6 175.8 302.6 185.8 296 185.8 C 289.3 185.8 289.3 175.8 296 175.8 Z">
			</path>
			<path fill="rgb(223, 83, 83)" fill-opacity=" .5" d="M 242 179.6 C 248.6 179.6 248.6 189.6 242 189.6 C 235.3 189.6 235.3 179.6 242 179.6 Z">
			</path>
			<path fill="rgb(223, 83, 83)" fill-opacity=" .5" d="M 306 152.1 C 312.6 152.1 312.6 162.1 306 162.1 C 299.3 162.1 299.3 152.1 306 152.1 Z">
			</path>
			<path fill="rgb(223, 83, 83)" fill-opacity=" .5" d="M 205 176.7 C 211.6 176.7 211.6 186.7 205 186.7 C 198.3 186.7 198.3 176.7 205 176.7 Z">
			</path>
			<path fill="rgb(223, 83, 83)" fill-opacity=" .5" d="M 189 198.7 C 195.6 198.7 195.6 208.7 189 208.7 C 182.3 208.7 182.3 198.7 189 198.7 Z">
			</path>
			<path fill="rgb(223, 83, 83)" fill-opacity=" .5" d="M 242 192.3 C 248.6 192.3 248.6 202.3 242 202.3 C 235.3 202.3 235.3 192.3 242 192.3 Z">
			</path>
			<path fill="rgb(223, 83, 83)" fill-opacity=" .5" d="M 210 177.9 C 216.6 177.9 216.6 187.9 210 187.9 C 203.3 187.9 203.3 177.9 210 177.9 Z">
			</path>
			<path fill="rgb(223, 83, 83)" fill-opacity=" .5" d="M 210 195.6 C 216.6 195.6 216.6 205.6 210 205.6 C 203.3 205.6 203.3 195.6 210 195.6 Z">
			</path>
			<path fill="rgb(223, 83, 83)" fill-opacity=" .5" d="M 231 175.8 C 237.6 175.8 237.6 185.8 231 185.8 C 224.3 185.8 224.3 175.8 231 175.8 Z">
			</path>
			<path fill="rgb(223, 83, 83)" fill-opacity=" .5" d="M 199 187.6 C 205.6 187.6 205.6 197.6 199 197.6 C 192.3 197.6 192.3 187.6 199 187.6 Z">
			</path>
			<path fill="rgb(223, 83, 83)" fill-opacity=" .5" d="M 147 211.3 C 153.6 211.3 153.6 221.3 147 221.3 C 140.3 221.3 140.3 211.3 147 211.3 Z">
			</path>
			<path fill="rgb(223, 83, 83)" fill-opacity=" .5" d="M 296 171.3 C 302.6 171.3 302.6 181.3 296 181.3 C 289.3 181.3 289.3 171.3 296 171.3 Z">
			</path>
			<path fill="rgb(223, 83, 83)" fill-opacity=" .5" d="M 210 171.3 C 216.6 171.3 216.6 181.3 210 181.3 C 203.3 181.3 203.3 171.3 210 171.3 Z">
			</path>
			<path fill="rgb(223, 83, 83)" fill-opacity=" .5" d="M 231 196.1 C 237.6 196.1 237.6 206.1 231 206.1 C 224.3 206.1 224.3 196.1 231 196.1 Z">
			</path>
			<path fill="rgb(223, 83, 83)" fill-opacity=" .5" d="M 178 190.7 C 184.6 190.7 184.6 200.7 178 200.7 C 171.3 200.7 171.3 190.7 178 190.7 Z">
			</path>
			<path fill="rgb(223, 83, 83)" fill-opacity=" .5" d="M 242 196.1 C 248.6 196.1 248.6 206.1 242 206.1 C 235.3 206.1 235.3 196.1 242 196.1 Z">
			</path>
			<path fill="rgb(223, 83, 83)" fill-opacity=" .5" d="M 274 146.7 C 280.6 146.7 280.6 156.7 274 156.7 C 267.3 156.7 267.3 146.7 274 146.7 Z">
			</path>
			<path fill="rgb(223, 83, 83)" fill-opacity=" .5" d="M 157 210.1 C 163.6 210.1 163.6 220.1 157 220.1 C 150.3 220.1 150.3 210.1 157 210.1 Z">
			</path>
			<path fill="rgb(223, 83, 83)" fill-opacity=" .5" d="M 125 198.2 C 131.6 198.2 131.6 208.2 125 208.2 C 118.3 208.2 118.3 198.2 125 198.2 Z">
			</path>
			<path fill="rgb(223, 83, 83)" fill-opacity=" .5" d="M 296 154.2 C 302.6 154.2 302.6 164.2 296 164.2 C 289.3 164.2 289.3 154.2 296 154.2 Z">
			</path>
			<path fill="rgb(223, 83, 83)" fill-opacity=" .5" d="M 210 188.5 C 216.6 188.5 216.6 198.5 210 198.5 C 203.3 198.5 203.3 188.5 210 188.5 Z">
			</path>
			<path fill="rgb(223, 83, 83)" fill-opacity=" .5" d="M 317 184.3 C 323.6 184.3 323.6 194.3 317 194.3 C 310.3 194.3 310.3 184.3 317 184.3 Z">
			</path>
			<path fill="rgb(223, 83, 83)" fill-opacity=" .5" d="M 210 191.9 C 216.6 191.9 216.6 201.9 210 201.9 C 203.3 201.9 203.3 191.9 210 191.9 Z">
			</path>
			<path fill="rgb(223, 83, 83)" fill-opacity=" .5" d="M 221 159.0 C 227.6 159.0 227.6 169.0 221 169.0 C 214.3 169.0 214.3 159.0 221 159.0 Z">
			</path>
			<path fill="rgb(223, 83, 83)" fill-opacity=" .5" d="M 360 132.7 C 366.6 132.7 366.6 142.7 360 142.7 C 353.3 142.7 353.3 132.7 360 132.7 Z">
			</path>
			<path fill="rgb(223, 83, 83)" fill-opacity=" .5" d="M 210 186.4 C 216.6 186.4 216.6 196.4 210 196.4 C 203.3 196.4 203.3 186.4 210 186.4 Z">
			</path>
			<path fill="rgb(223, 83, 83)" fill-opacity=" .5" d="M 168 194.0 C 174.6 194.0 174.6 204.0 168 204.0 C 161.3 204.0 161.3 194.0 168 194.0 Z">
			</path>
			<path fill="rgb(223, 83, 83)" fill-opacity=" .5" d="M 189 187.6 C 195.6 187.6 195.6 197.6 189 197.6 C 182.3 197.6 182.3 187.6 189 187.6 Z">
			</path>
			<path fill="rgb(223, 83, 83)" fill-opacity=" .5" d="M 269 192.3 C 275.6 192.3 275.6 202.3 269 202.3 C 262.3 202.3 262.3 192.3 269 192.3 Z">
			</path>
			<path fill="rgb(223, 83, 83)" fill-opacity=" .5" d="M 295 168.2 C 301.6 168.2 301.6 178.2 295 178.2 C 288.3 178.2 288.3 168.2 295 168.2 Z">
			</path>
			<path fill="rgb(223, 83, 83)" fill-opacity=" .5" d="M 136 187.6 C 142.6 187.6 142.6 197.6 136 197.6 C 129.3 197.6 129.3 187.6 136 187.6 Z">
			</path>
			<path fill="rgb(223, 83, 83)" fill-opacity=" .5" d="M 231 170.3 C 237.6 170.3 237.6 180.3 231 180.3 C 224.3 180.3 224.3 170.3 231 170.3 Z">
			</path>
			<path fill="rgb(223, 83, 83)" fill-opacity=" .5" d="M 189 181.0 C 195.6 181.0 195.6 191.0 189 191.0 C 182.3 191.0 182.3 181.0 189 181.0 Z">
			</path>
			<path fill="rgb(223, 83, 83)" fill-opacity=" .5" d="M 231 145.5 C 237.6 145.5 237.6 155.5 231 155.5 C 224.3 155.5 224.3 145.5 231 145.5 Z">
			</path>
			<path fill="rgb(223, 83, 83)" fill-opacity=" .5" d="M 274 161.8 C 280.6 161.8 280.6 171.8 274 171.8 C 267.3 171.8 267.3 161.8 274 161.8 Z">
			</path>
			<path fill="rgb(223, 83, 83)" fill-opacity=" .5" d="M 157 194.9 C 163.6 194.9 163.6 204.9 157 204.9 C 150.3 204.9 150.3 194.9 157 194.9 Z">
			</path>
			<path fill="rgb(223, 83, 83)" fill-opacity=" .5" d="M 253 194.0 C 259.6 194.0 259.6 204.0 253 204.0 C 246.3 204.0 246.3 194.0 253 194.0 Z">
			</path>
			<path fill="rgb(223, 83, 83)" fill-opacity=" .5" d="M 189 126.3 C 195.6 126.3 195.6 136.3 189 136.3 C 182.3 136.3 182.3 126.3 189 126.3 Z">
			</path>
			<path fill="rgb(223, 83, 83)" fill-opacity=" .5" d="M 253 162.7 C 259.6 162.7 259.6 172.7 253 172.7 C 246.3 172.7 246.3 162.7 253 162.7 Z">
			</path>
			<path fill="rgb(223, 83, 83)" fill-opacity=" .5" d="M 104 183.3 C 110.6 183.3 110.6 193.3 104 193.3 C 97.3 193.3 97.3 183.3 104 183.3 Z">
			</path>
			<path fill="rgb(223, 83, 83)" fill-opacity=" .5" d="M 168 194.0 C 174.6 194.0 174.6 204.0 168 204.0 C 161.3 204.0 161.3 194.0 168 194.0 Z">
			</path>
			<path fill="rgb(223, 83, 83)" fill-opacity=" .5" d="M 221 196.1 C 227.6 196.1 227.6 206.1 221 206.1 C 214.3 206.1 214.3 196.1 221 196.1 Z">
			</path>
			<path fill="rgb(223, 83, 83)" fill-opacity=" .5" d="M 210 155.2 C 216.6 155.2 216.6 165.2 210 165.2 C 203.3 165.2 203.3 155.2 210 155.2 Z">
			</path>
			<path fill="rgb(223, 83, 83)" fill-opacity=" .5" d="M 189 208 C 195.6 208 195.6 218 189 218 C 182.3 218 182.3 208 189 208 Z">
			</path>
			<path fill="rgb(223, 83, 83)" fill-opacity=" .5" d="M 210 174.6 C 216.6 174.6 216.6 184.6 210 184.6 C 203.3 184.6 203.3 174.6 210 174.6 Z">
			</path>
			<path fill="rgb(223, 83, 83)" fill-opacity=" .5" d="M 242 191.9 C 248.6 191.9 248.6 201.9 242 201.9 C 235.3 201.9 235.3 191.9 242 191.9 Z">
			</path>
			<path fill="rgb(223, 83, 83)" fill-opacity=" .5" d="M 168 185.5 C 174.6 185.5 174.6 195.5 168 195.5 C 161.3 195.5 161.3 185.5 168 185.5 Z">
			</path>
			<path fill="rgb(223, 83, 83)" fill-opacity=" .5" d="M 189 176.7 C 195.6 176.7 195.6 186.7 189 186.7 C 182.3 186.7 182.3 176.7 189 176.7 Z">
			</path>
			<path fill="rgb(223, 83, 83)" fill-opacity=" .5" d="M 178 175.8 C 184.6 175.8 184.6 185.8 178 185.8 C 171.3 185.8 171.3 175.8 178 175.8 Z">
			</path>
			<path fill="rgb(223, 83, 83)" fill-opacity=" .5" d="M 147 193.8 C 153.6 193.8 153.6 203.8 147 203.8 C 140.3 203.8 140.3 193.8 147 193.8 Z">
			</path>
			<path fill="rgb(223, 83, 83)" fill-opacity=" .5" d="M 161 203.7 C 167.6 203.7 167.6 213.7 161 213.7 C 154.3 213.7 154.3 203.7 161 203.7 Z">
			</path>
			<path fill="rgb(223, 83, 83)" fill-opacity=" .5" d="M 256 173.6 C 262.6 173.6 262.6 183.6 256 183.6 C 249.3 183.6 249.3 173.6 256 173.6 Z">
			</path>
			<path fill="rgb(223, 83, 83)" fill-opacity=" .5" d="M 166 200.4 C 172.6 200.4 172.6 210.4 166 210.4 C 159.3 210.4 159.3 200.4 166 200.4 Z">
			</path>
			<path fill="rgb(223, 83, 83)" fill-opacity=" .5" d="M 280 201.6 C 286.6 201.6 286.6 211.6 280 211.6 C 273.3 211.6 273.3 201.6 280 201.6 Z">
			</path>
			<path fill="rgb(223, 83, 83)" fill-opacity=" .5" d="M 185 186.2 C 191.6 186.2 191.6 196.2 185 196.2 C 178.3 196.2 178.3 186.2 185 186.2 Z">
			</path>
			<path fill="rgb(223, 83, 83)" fill-opacity=" .5" d="M 134 197.1 C 140.6 197.1 140.6 207.1 134 207.1 C 127.3 207.1 127.3 197.1 134 197.1 Z">
			</path>
			<path fill="rgb(223, 83, 83)" fill-opacity=" .5" d="M 231 189.5 C 237.6 189.5 237.6 199.5 231 199.5 C 224.3 199.5 224.3 189.5 231 189.5 Z">
			</path>
			<path fill="rgb(223, 83, 83)" fill-opacity=" .5" d="M 151 194.9 C 157.6 194.9 157.6 204.9 151 204.9 C 144.3 204.9 144.3 194.9 151 194.9 Z">
			</path>
			<path fill="rgb(223, 83, 83)" fill-opacity=" .5" d="M 227 179.1 C 233.6 179.1 233.6 189.1 227 189.1 C 220.3 189.1 220.3 179.1 227 179.1 Z">
			</path>
			<path fill="rgb(223, 83, 83)" fill-opacity=" .5" d="M 168 210.8 C 174.6 210.8 174.6 220.8 168 220.8 C 161.3 220.8 161.3 210.8 168 210.8 Z">
			</path>
			<path fill="rgb(223, 83, 83)" fill-opacity=" .5" d="M 134 173.9 C 140.6 173.9 140.6 183.9 134 183.9 C 127.3 183.9 127.3 173.9 134 173.9 Z">
			</path>
			<path fill="rgb(223, 83, 83)" fill-opacity=" .5" d="M 152 216.5 C 158.6 216.5 158.6 226.5 152 226.5 C 145.3 226.5 145.3 216.5 152 216.5 Z">
			</path>
			<path fill="rgb(223, 83, 83)" fill-opacity=" .5" d="M 242 183.1 C 248.6 183.1 248.6 193.1 242 193.1 C 235.3 193.1 235.3 183.1 242 183.1 Z">
			</path>
			<path fill="rgb(223, 83, 83)" fill-opacity=" .5" d="M 168 224.0 C 174.6 224.0 174.6 234.0 168 234.0 C 161.3 234.0 161.3 224.0 168 224.0 Z">
			</path>
			<path fill="rgb(223, 83, 83)" fill-opacity=" .5" d="M 168 196.6 C 174.6 196.6 174.6 206.6 168 206.6 C 161.3 206.6 161.3 196.6 168 196.6 Z">
			</path>
			<path fill="rgb(223, 83, 83)" fill-opacity=" .5" d="M 226 184.8 C 232.6 184.8 232.6 194.8 226 194.8 C 219.3 194.8 219.3 184.8 226 184.8 Z">
			</path>
			<path fill="rgb(223, 83, 83)" fill-opacity=" .5" d="M 191 189.0 C 197.6 189.0 197.6 199.0 191 199.0 C 184.3 199.0 184.3 189.0 191 189.0 Z">
			</path>
			<path fill="rgb(223, 83, 83)" fill-opacity=" .5" d="M 175 197.5 C 181.6 197.5 181.6 207.5 175 207.5 C 168.3 207.5 168.3 197.5 175 197.5 Z">
			</path>
			<path fill="rgb(223, 83, 83)" fill-opacity=" .5" d="M 201 199.0 C 207.6 199.0 207.6 209.0 201 209.0 C 194.3 209.0 194.3 199.0 201 199.0 Z">
			</path>
			<path fill="rgb(223, 83, 83)" fill-opacity=" .5" d="M 138 167.2 C 144.6 167.2 144.6 177.2 138 177.2 C 131.3 177.2 131.3 167.2 138 167.2 Z">
			</path>
			<path fill="rgb(223, 83, 83)" fill-opacity=" .5" d="M 126 209.8 C 132.6 209.8 132.6 219.8 126 219.8 C 119.3 219.8 119.3 209.8 126 209.8 Z">
			</path>
			<path fill="rgb(223, 83, 83)" fill-opacity=" .5" d="M 274 179.6 C 280.6 179.6 280.6 189.6 274 189.6 C 267.3 189.6 267.3 179.6 274 179.6 Z">
			</path>
			<path fill="rgb(223, 83, 83)" fill-opacity=" .5" d="M 194 192.8 C 200.6 192.8 200.6 202.8 194 202.8 C 187.3 202.8 187.3 192.8 194 192.8 Z">
			</path>
			<path fill="rgb(223, 83, 83)" fill-opacity=" .5" d="M 147 187.1 C 153.6 187.1 153.6 197.1 147 197.1 C 140.3 197.1 140.3 187.1 147 187.1 Z">
			</path>
			<path fill="rgb(223, 83, 83)" fill-opacity=" .5" d="M 79 220.3 C 85.6 220.3 85.6 230.3 79 230.3 C 72.3 230.3 72.3 220.3 79 220.3 Z">
			</path>
			<path fill="rgb(223, 83, 83)" fill-opacity=" .5" d="M 178 183.8 C 184.6 183.8 184.6 193.8 178 193.8 C 171.3 193.8 171.3 183.8 178 183.8 Z">
			</path>
			<path fill="rgb(223, 83, 83)" fill-opacity=" .5" d="M 186 207.5 C 192.6 207.5 192.6 217.5 186 217.5 C 179.3 217.5 179.3 207.5 186 207.5 Z">
			</path>
			<path fill="rgb(223, 83, 83)" fill-opacity=" .5" d="M 194 198.5 C 200.6 198.5 200.6 208.5 194 208.5 C 187.3 208.5 187.3 198.5 194 198.5 Z">
			</path>
			<path fill="rgb(223, 83, 83)" fill-opacity=" .5" d="M 168 219.8 C 174.6 219.8 174.6 229.8 168 229.8 C 161.3 229.8 161.3 219.8 168 219.8 Z">
			</path>
			<path fill="rgb(223, 83, 83)" fill-opacity=" .5" d="M 178 195.6 C 184.6 195.6 184.6 205.6 178 205.6 C 171.3 205.6 171.3 195.6 178 195.6 Z">
			</path>
			<path fill="rgb(223, 83, 83)" fill-opacity=" .5" d="M 231 177.2 C 237.6 177.2 237.6 187.2 231 187.2 C 224.3 187.2 224.3 177.2 231 177.2 Z">
			</path>
			<path fill="rgb(223, 83, 83)" fill-opacity=" .5" d="M 163 213.6 C 169.6 213.6 169.6 223.6 163 223.6 C 156.3 223.6 156.3 213.6 163 213.6 Z">
			</path>
			<path fill="rgb(223, 83, 83)" fill-opacity=" .5" d="M 233 186.7 C 239.6 186.7 239.6 196.7 233 196.7 C 226.3 196.7 226.3 186.7 233 186.7 Z">
			</path>
			<path fill="rgb(223, 83, 83)" fill-opacity=" .5" d="M 246 176.2 C 252.6 176.2 252.6 186.2 246 186.2 C 239.3 186.2 239.3 176.2 246 176.2 Z">
			</path>
			<path fill="rgb(223, 83, 83)" fill-opacity=" .5" d="M 197 203.7 C 203.6 203.7 203.6 213.7 197 213.7 C 190.3 213.7 190.3 203.7 197 203.7 Z">
			</path>
			<path fill="rgb(223, 83, 83)" fill-opacity=" .5" d="M 274 77.3 C 280.6 77.3 280.6 87.3 274 87.3 C 267.3 87.3 267.3 77.3 274 77.3 Z">
			</path>
			<path fill="rgb(223, 83, 83)" fill-opacity=" .5" d="M 225 192.3 C 231.6 192.3 231.6 202.3 225 202.3 C 218.3 202.3 218.3 192.3 225 192.3 Z">
			</path>
			<path fill="rgb(223, 83, 83)" fill-opacity=" .5" d="M 239 172.0 C 245.6 172.0 245.6 182.0 239 182.0 C 232.3 182.0 232.3 172.0 239 172.0 Z">
			</path>
			<path fill="rgb(223, 83, 83)" fill-opacity=" .5" d="M 193 155.9 C 199.6 155.9 199.6 165.9 193 165.9 C 186.3 165.9 186.3 155.9 193 155.9 Z">
			</path>
			<path fill="rgb(223, 83, 83)" fill-opacity=" .5" d="M 204 184.8 C 210.6 184.8 210.6 194.8 204 194.8 C 197.3 194.8 197.3 184.8 204 184.8 Z">
			</path>
			<path fill="rgb(223, 83, 83)" fill-opacity=" .5" d="M 319 159.2 C 325.6 159.2 325.6 169.2 319 169.2 C 312.3 169.2 312.3 159.2 319 159.2 Z">
			</path>
			<path fill="rgb(223, 83, 83)" fill-opacity=" .5" d="M 267 193.3 C 273.6 193.3 273.6 203.3 267 203.3 C 260.3 203.3 260.3 193.3 267 193.3 Z">
			</path>
			<path fill="rgb(223, 83, 83)" fill-opacity=" .5" d="M 278 188.1 C 284.6 188.1 284.6 198.1 278 198.1 C 271.3 198.1 271.3 188.1 278 188.1 Z">
			</path>
			<path fill="rgb(223, 83, 83)" fill-opacity=" .5" d="M 242 163.0 C 248.6 163.0 248.6 173.0 242 173.0 C 235.3 173.0 235.3 163.0 242 163.0 Z">
			</path>
			<path fill="rgb(223, 83, 83)" fill-opacity=" .5" d="M 236 199.9 C 242.6 199.9 242.6 209.9 236 209.9 C 229.3 209.9 229.3 199.9 236 199.9 Z">
			</path>
			<path fill="rgb(223, 83, 83)" fill-opacity=" .5" d="M 93 153.0 C 99.6 153.0 99.6 163.0 93 163.0 C 86.3 163.0 86.3 153.0 93 153.0 Z">
			</path>
			<path fill="rgb(223, 83, 83)" fill-opacity=" .5" d="M 176 199.4 C 182.6 199.4 182.6 209.4 176 209.4 C 169.3 209.4 169.3 199.4 176 199.4 Z">
			</path>
			<path fill="rgb(223, 83, 83)" fill-opacity=" .5" d="M 192 185.7 C 198.6 185.7 198.6 195.7 192 195.7 C 185.3 195.7 185.3 185.7 192 185.7 Z">
			</path>
			<path fill="rgb(223, 83, 83)" fill-opacity=" .5" d="M 334 168.2 C 340.6 168.2 340.6 178.2 334 178.2 C 327.3 178.2 327.3 168.2 334 168.2 Z">
			</path>
			<path fill="rgb(223, 83, 83)" fill-opacity=" .5" d="M 159 194.7 C 165.6 194.7 165.6 204.7 159 204.7 C 152.3 204.7 152.3 194.7 159 194.7 Z">
			</path>
			<path fill="rgb(223, 83, 83)" fill-opacity=" .5" d="M 191 189.5 C 197.6 189.5 197.6 199.5 191 199.5 C 184.3 199.5 184.3 189.5 191 189.5 Z">
			</path>
			<path fill="rgb(223, 83, 83)" fill-opacity=" .5" d="M 159 211.3 C 165.6 211.3 165.6 221.3 159 221.3 C 152.3 221.3 152.3 211.3 159 211.3 Z">
			</path>
			<path fill="rgb(223, 83, 83)" fill-opacity=" .5" d="M 189 202.7 C 195.6 202.7 195.6 212.7 189 212.7 C 182.3 212.7 182.3 202.7 189 202.7 Z">
			</path>
			<path fill="rgb(223, 83, 83)" fill-opacity=" .5" d="M 162 218.1 C 168.6 218.1 168.6 228.1 162 228.1 C 155.3 228.1 155.3 218.1 162 218.1 Z">
			</path>
			<path fill="rgb(223, 83, 83)" fill-opacity=" .5" d="M 220 187.6 C 226.6 187.6 226.6 197.6 220 197.6 C 213.3 197.6 213.3 187.6 220 187.6 Z">
			</path>
			<path fill="rgb(223, 83, 83)" fill-opacity=" .5" d="M 243 188.5 C 249.6 188.5 249.6 198.5 243 198.5 C 236.3 198.5 236.3 188.5 243 188.5 Z">
			</path>
			<path fill="rgb(223, 83, 83)" fill-opacity=" .5" d="M 179 176.2 C 185.6 176.2 185.6 186.2 179 186.2 C 172.3 186.2 172.3 176.2 179 176.2 Z">
			</path>
			<path fill="rgb(223, 83, 83)" fill-opacity=" .5" d="M 252 194.0 C 258.6 194.0 258.6 204.0 252 204.0 C 245.3 204.0 245.3 194.0 252 194.0 Z">
			</path>
			<path fill="rgb(223, 83, 83)" fill-opacity=" .5" d="M 278 162.5 C 284.6 162.5 284.6 172.5 278 172.5 C 271.3 172.5 271.3 162.5 278 162.5 Z">
			</path>
			<path fill="rgb(223, 83, 83)" fill-opacity=" .5" d="M 166 208 C 172.6 208 172.6 218 166 218 C 159.3 218 159.3 208 166 208 Z">
			</path>
			<path fill="rgb(223, 83, 83)" fill-opacity=" .5" d="M 121 210.3 C 127.6 210.3 127.6 220.3 121 220.3 C 114.3 220.3 114.3 210.3 121 210.3 Z">
			</path>
			<path fill="rgb(223, 83, 83)" fill-opacity=" .5" d="M 194 184.8 C 200.6 184.8 200.6 194.8 194 194.8 C 187.3 194.8 187.3 184.8 194 184.8 Z">
			</path>
			<path fill="rgb(223, 83, 83)" fill-opacity=" .5" d="M 247 201.3 C 253.6 201.3 253.6 211.3 247 211.3 C 240.3 211.3 240.3 201.3 247 201.3 Z">
			</path>
			<path fill="rgb(223, 83, 83)" fill-opacity=" .5" d="M 202 156.8 C 208.6 156.8 208.6 166.8 202 166.8 C 195.3 166.8 195.3 156.8 202 156.8 Z">
			</path>
			<path fill="rgb(223, 83, 83)" fill-opacity=" .5" d="M 254 172.9 C 260.6 172.9 260.6 182.9 254 182.9 C 247.3 182.9 247.3 172.9 254 172.9 Z">
			</path>
			<path fill="rgb(223, 83, 83)" fill-opacity=" .5" d="M 189 188.5 C 195.6 188.5 195.6 198.5 189 198.5 C 182.3 198.5 182.3 188.5 189 188.5 Z">
			</path>
			<path fill="rgb(223, 83, 83)" fill-opacity=" .5" d="M 252 162.0 C 258.6 162.0 258.6 172.0 252 172.0 C 245.3 172.0 245.3 162.0 252 162.0 Z">
			</path>
			<path fill="rgb(223, 83, 83)" fill-opacity=" .5" d="M 304 167.2 C 310.6 167.2 310.6 177.2 304 177.2 C 297.3 177.2 297.3 167.2 304 167.2 Z">
			</path>
			<path fill="rgb(223, 83, 83)" fill-opacity=" .5" d="M 252 159.2 C 258.6 159.2 258.6 169.2 252 169.2 C 245.3 169.2 245.3 159.2 252 159.2 Z">
			</path>
			<path fill="rgb(223, 83, 83)" fill-opacity=" .5" d="M 126 217.7 C 132.6 217.7 132.6 227.7 126 227.7 C 119.3 227.7 119.3 217.7 126 217.7 Z">
			</path>
			<path fill="rgb(223, 83, 83)" fill-opacity=" .5" d="M 178 196.6 C 184.6 196.6 184.6 206.6 178 206.6 C 171.3 206.6 171.3 196.6 178 196.6 Z">
			</path>
			<path fill="rgb(223, 83, 83)" fill-opacity=" .5" d="M 201 194.5 C 207.6 194.5 207.6 204.5 201 204.5 C 194.3 204.5 194.3 194.5 201 194.5 Z">
			</path>
			<path fill="rgb(223, 83, 83)" fill-opacity=" .5" d="M 243 178.4 C 249.6 178.4 249.6 188.4 243 188.4 C 236.3 188.4 236.3 178.4 243 178.4 Z">
			</path>
			<path fill="rgb(223, 83, 83)" fill-opacity=" .5" d="M 100 185.9 C 106.6 185.9 106.6 195.9 100 195.9 C 93.3 195.9 93.3 185.9 100 185.9 Z">
			</path>
			<path fill="rgb(223, 83, 83)" fill-opacity=" .5" d="M 197 208 C 203.6 208 203.6 218 197 218 C 190.3 218 190.3 208 197 208 Z">
			</path>
			<path fill="rgb(223, 83, 83)" fill-opacity=" .5" d="M 205 202.5 C 211.6 202.5 211.6 212.5 205 212.5 C 198.3 212.5 198.3 202.5 205 202.5 Z">
			</path>
			<path fill="rgb(223, 83, 83)" fill-opacity=" .5" d="M 93 211.0 C 99.6 211.0 99.6 221.0 93 221.0 C 86.3 221.0 86.3 211.0 93 211.0 Z">
			</path>
			<path fill="rgb(223, 83, 83)" fill-opacity=" .5" d="M 231 194.5 C 237.6 194.5 237.6 204.5 231 204.5 C 224.3 204.5 224.3 194.5 231 194.5 Z">
			</path>
			<path fill="rgb(223, 83, 83)" fill-opacity=" .5" d="M 274 181.7 C 280.6 181.7 280.6 191.7 274 191.7 C 267.3 191.7 267.3 181.7 274 181.7 Z">
			</path>
			<path fill="rgb(223, 83, 83)" fill-opacity=" .5" d="M 285 147.1 C 291.6 147.1 291.6 157.1 285 157.1 C 278.3 157.1 278.3 147.1 285 147.1 Z">
			</path>
			<path fill="rgb(223, 83, 83)" fill-opacity=" .5" d="M 218 200.4 C 224.6 200.4 224.6 210.4 218 210.4 C 211.3 210.4 211.3 200.4 218 200.4 Z">
			</path>
			<path fill="rgb(223, 83, 83)" fill-opacity=" .5" d="M 184 196.8 C 190.6 196.8 190.6 206.8 184 206.8 C 177.3 206.8 177.3 196.8 184 196.8 Z">
			</path>
			<path fill="rgb(223, 83, 83)" fill-opacity=" .5" d="M 176 137 C 182.6 137 182.6 147 176 147 C 169.3 147 169.3 137 176 137 Z">
			</path>
			<path fill="rgb(223, 83, 83)" fill-opacity=" .5" d="M 215 153.3 C 221.6 153.3 221.6 163.3 215 163.3 C 208.3 163.3 208.3 153.3 215 153.3 Z">
			</path>
			<path fill="rgb(223, 83, 83)" fill-opacity=" .5" d="M 193 179.6 C 199.6 179.6 199.6 189.6 193 189.6 C 186.3 189.6 186.3 179.6 193 179.6 Z">
			</path>
			<path fill="rgb(223, 83, 83)" fill-opacity=" .5" d="M 168 150.4 C 174.6 150.4 174.6 160.4 168 160.4 C 161.3 160.4 161.3 150.4 168 150.4 Z">
			</path>
			<path fill="rgb(223, 83, 83)" fill-opacity=" .5" d="M 134 201.6 C 140.6 201.6 140.6 211.6 134 211.6 C 127.3 211.6 127.3 201.6 134 201.6 Z">
			</path>
			<path fill="rgb(223, 83, 83)" fill-opacity=" .5" d="M 205 183.6 C 211.6 183.6 211.6 193.6 205 193.6 C 198.3 193.6 198.3 183.6 205 183.6 Z">
			</path>
			<path fill="rgb(223, 83, 83)" fill-opacity=" .5" d="M 210 179.6 C 216.6 179.6 216.6 189.6 210 189.6 C 203.3 189.6 203.3 179.6 210 179.6 Z">
			</path>
			<path fill="rgb(223, 83, 83)" fill-opacity=" .5" d="M 214 184.3 C 220.6 184.3 220.6 194.3 214 194.3 C 207.3 194.3 207.3 184.3 214 184.3 Z">
			</path>
			<path fill="rgb(223, 83, 83)" fill-opacity=" .5" d="M 338 182.6 C 344.6 182.6 344.6 192.6 338 192.6 C 331.3 192.6 331.3 182.6 338 182.6 Z">
			</path>
			<path fill="rgb(223, 83, 83)" fill-opacity=" .5" d="M 237 196.6 C 243.6 196.6 243.6 206.6 237 206.6 C 230.3 206.6 230.3 196.6 237 196.6 Z">
			</path>
			<path fill="rgb(223, 83, 83)" fill-opacity=" .5" d="M 147 197.8 C 153.6 197.8 153.6 207.8 147 207.8 C 140.3 207.8 140.3 197.8 147 197.8 Z">
			</path>
			<path fill="rgb(223, 83, 83)" fill-opacity=" .5" d="M 104 216.2 C 110.6 216.2 110.6 226.2 104 226.2 C 97.3 226.2 97.3 216.2 104 216.2 Z">
			</path>
			<path fill="rgb(223, 83, 83)" fill-opacity=" .5" d="M 194 194.0 C 200.6 194.0 200.6 204.0 194 204.0 C 187.3 204.0 187.3 194.0 194 194.0 Z">
			</path>
			<path fill="rgb(223, 83, 83)" fill-opacity=" .5" d="M 173 162.7 C 179.6 162.7 179.6 172.7 173 172.7 C 166.3 172.7 166.3 162.7 173 162.7 Z">
			</path>
			<path fill="rgb(223, 83, 83)" fill-opacity=" .5" d="M 231 181.9 C 237.6 181.9 237.6 191.9 231 191.9 C 224.3 191.9 224.3 181.9 231 181.9 Z">
			</path>
			<path fill="rgb(223, 83, 83)" fill-opacity=" .5" d="M 147 184.8 C 153.6 184.8 153.6 194.8 147 194.8 C 140.3 194.8 140.3 184.8 147 184.8 Z">
			</path>
			<path fill="rgb(223, 83, 83)" fill-opacity=" .5" d="M 252 153.8 C 258.6 153.8 258.6 163.8 252 163.8 C 245.3 163.8 245.3 153.8 252 153.8 Z">
			</path>
			<path fill="rgb(223, 83, 83)" fill-opacity=" .5" d="M 168 207.5 C 174.6 207.5 174.6 217.5 168 217.5 C 161.3 217.5 161.3 207.5 168 207.5 Z">
			</path>
			<path fill="rgb(223, 83, 83)" fill-opacity=" .5" d="M 210 193.3 C 216.6 193.3 216.6 203.3 210 203.3 C 203.3 203.3 203.3 193.3 210 193.3 Z">
			</path>
			<path fill="rgb(223, 83, 83)" fill-opacity=" .5" d="M 231 188.3 C 237.6 188.3 237.6 198.3 231 198.3 C 224.3 198.3 224.3 188.3 231 188.3 Z">
			</path>
			<path fill="rgb(223, 83, 83)" fill-opacity=" .5" d="M 178 183.6 C 184.6 183.6 184.6 193.6 178 193.6 C 171.3 193.6 171.3 183.6 178 183.6 Z">
			</path>
			<path fill="rgb(223, 83, 83)" fill-opacity=" .5" d="M 168 207.5 C 174.6 207.5 174.6 217.5 168 217.5 C 161.3 217.5 161.3 207.5 168 207.5 Z">
			</path>
			<path fill="rgb(223, 83, 83)" fill-opacity=" .5" d="M 231 197.3 C 237.6 197.3 237.6 207.3 231 207.3 C 224.3 207.3 224.3 197.3 231 197.3 Z">
			</path>
			<path fill="rgb(223, 83, 83)" fill-opacity=" .5" d="M 199 187.8 C 205.6 187.8 205.6 197.8 199 197.8 C 192.3 197.8 192.3 187.8 199 187.8 Z">
			</path>
			<path fill="rgb(223, 83, 83)" fill-opacity=" .5" d="M 242 178.8 C 248.6 178.8 248.6 188.8 242 188.8 C 235.3 188.8 235.3 178.8 242 178.8 Z">
			</path>
			<path fill="rgb(223, 83, 83)" fill-opacity=" .5" d="M 221 192.3 C 227.6 192.3 227.6 202.3 221 202.3 C 214.3 202.3 214.3 192.3 221 192.3 Z">
			</path>
			<path fill="rgb(223, 83, 83)" fill-opacity=" .5" d="M 178 165.6 C 184.6 165.6 184.6 175.6 178 175.6 C 171.3 175.6 171.3 165.6 178 165.6 Z">
			</path>
			<path fill="rgb(223, 83, 83)" fill-opacity=" .5" d="M 169 203.0 C 175.6 203.0 175.6 213.0 169 213.0 C 162.3 213.0 162.3 203.0 169 203.0 Z">
			</path>
			<path fill="rgb(223, 83, 83)" fill-opacity=" .5" d="M 252 153.0 C 258.6 153.0 258.6 163.0 252 163.0 C 245.3 163.0 245.3 153.0 252 153.0 Z">
			</path>
			<path fill="rgb(223, 83, 83)" fill-opacity=" .5" d="M 185 199.4 C 191.6 199.4 191.6 209.4 185 209.4 C 178.3 209.4 178.3 199.4 185 199.4 Z">
			</path>
			<path fill="rgb(223, 83, 83)" fill-opacity=" .5" d="M 100 217.9 C 106.6 217.9 106.6 227.9 100 227.9 C 93.3 227.9 93.3 217.9 100 217.9 Z">
			</path>
			<path fill="rgb(223, 83, 83)" fill-opacity=" .5" d="M 168 197.5 C 174.6 197.5 174.6 207.5 168 207.5 C 161.3 207.5 161.3 197.5 168 197.5 Z">
			</path>
			<path fill="rgb(223, 83, 83)" fill-opacity=" .5" d="M 306 129.9 C 312.6 129.9 312.6 139.9 306 139.9 C 299.3 139.9 299.3 129.9 306 129.9 Z">
			</path>
			<path fill="rgb(223, 83, 83)" fill-opacity=" .5" d="M 184 196.1 C 190.6 196.1 190.6 206.1 184 206.1 C 177.3 206.1 177.3 196.1 184 196.1 Z">
			</path>
			<path fill="rgb(223, 83, 83)" fill-opacity=" .5" d="M 120 216.9 C 126.6 216.9 126.6 226.9 120 226.9 C 113.3 226.9 113.3 216.9 120 216.9 Z">
			</path>
			<path fill="rgb(223, 83, 83)" fill-opacity=" .5" d="M 168 215.1 C 174.6 215.1 174.6 225.1 168 225.1 C 161.3 225.1 161.3 215.1 168 215.1 Z">
			</path>
			<path fill="rgb(223, 83, 83)" fill-opacity=" .5" d="M 256 165.8 C 262.6 165.8 262.6 175.8 256 175.8 C 249.3 175.8 249.3 165.8 256 165.8 Z">
			</path>
			<path fill="rgb(223, 83, 83)" fill-opacity=" .5" d="M 335 167.0 C 341.6 167.0 341.6 177.0 335 177.0 C 328.3 177.0 328.3 167.0 335 167.0 Z">
			</path>
			<path fill="rgb(223, 83, 83)" fill-opacity=" .5" d="M 277 184.8 C 283.6 184.8 283.6 194.8 277 194.8 C 270.3 194.8 270.3 184.8 277 184.8 Z">
			</path>
			<path fill="rgb(223, 83, 83)" fill-opacity=" .5" d="M 285 197.3 C 291.6 197.3 291.6 207.3 285 207.3 C 278.3 207.3 278.3 197.3 285 197.3 Z">
			</path>
			<path fill="rgb(223, 83, 83)" fill-opacity=" .5" d="M 253 154.0 C 259.6 154.0 259.6 164.0 253 164.0 C 246.3 164.0 246.3 154.0 253 154.0 Z">
			</path>
			<path fill="rgb(223, 83, 83)" fill-opacity=" .5" d="M 306 118.5 C 312.6 118.5 312.6 128.5 306 128.5 C 299.3 128.5 299.3 118.5 306 118.5 Z">
			</path>
			<path fill="rgb(223, 83, 83)" fill-opacity=" .5" d="M 225 190.9 C 231.6 190.9 231.6 200.9 225 200.9 C 218.3 200.9 218.3 190.9 225 190.9 Z">
			</path>
			<path fill="rgb(223, 83, 83)" fill-opacity=" .5" d="M 294 131.0 C 300.6 131.0 300.6 141.0 294 141.0 C 287.3 141.0 287.3 131.0 294 131.0 Z">
			</path>
			<path fill="rgb(223, 83, 83)" fill-opacity=" .5" d="M 163 206.5 C 169.6 206.5 169.6 216.5 163 216.5 C 156.3 216.5 156.3 206.5 163 206.5 Z">
			</path>
			<path fill="rgb(223, 83, 83)" fill-opacity=" .5" d="M 231 163.5 C 237.6 163.5 237.6 173.5 231 173.5 C 224.3 173.5 224.3 163.5 231 163.5 Z">
			</path>
			<path fill="rgb(223, 83, 83)" fill-opacity=" .5" d="M 142 213.2 C 148.6 213.2 148.6 223.2 142 223.2 C 135.3 223.2 135.3 213.2 142 213.2 Z">
			</path>
			<path fill="rgb(223, 83, 83)" fill-opacity=" .5" d="M 294 153.0 C 300.6 153.0 300.6 163.0 294 163.0 C 287.3 163.0 287.3 153.0 294 153.0 Z">
			</path>
			<path fill="rgb(223, 83, 83)" fill-opacity=" .5" d="M 236 209.8 C 242.6 209.8 242.6 219.8 236 219.8 C 229.3 219.8 229.3 209.8 236 209.8 Z">
			</path>
			<path fill="rgb(223, 83, 83)" fill-opacity=" .5" d="M 60 208.4 C 66.6 208.4 66.6 218.4 60 218.4 C 53.3 218.4 53.3 208.4 60 208.4 Z">
			</path>
			<path fill="rgb(223, 83, 83)" fill-opacity=" .5" d="M 168 208 C 174.6 208 174.6 218 168 218 C 161.3 218 161.3 208 168 208 Z">
			</path>
			<path fill="rgb(223, 83, 83)" fill-opacity=" .5" d="M 112 226.9 C 118.6 226.9 118.6 236.9 112 236.9 C 105.3 236.9 105.3 226.9 112 226.9 Z">
			</path>
			<path fill="rgb(223, 83, 83)" fill-opacity=" .5" d="M 276 178.4 C 282.6 178.4 282.6 188.4 276 188.4 C 269.3 188.4 269.3 178.4 276 178.4 Z">
			</path>
			<path fill="rgb(223, 83, 83)" fill-opacity=" .5" d="M 259 198.0 C 265.6 198.0 265.6 208.0 259 208.0 C 252.3 208.0 252.3 198.0 259 198.0 Z">
			</path>
			<path fill="rgb(223, 83, 83)" fill-opacity=" .5" d="M 273 195.6 C 279.6 195.6 279.6 205.6 273 205.6 C 266.3 205.6 266.3 195.6 273 195.6 Z">
			</path>
			<path fill="rgb(223, 83, 83)" fill-opacity=" .5" d="M 169 148.3 C 175.6 148.3 175.6 158.3 169 158.3 C 162.3 158.3 162.3 148.3 169 148.3 Z">
			</path>
			<path fill="rgb(223, 83, 83)" fill-opacity=" .5" d="M 304 168.2 C 310.6 168.2 310.6 178.2 304 178.2 C 297.3 178.2 297.3 168.2 304 168.2 Z">
			</path>
			<path fill="rgb(223, 83, 83)" fill-opacity=" .5" d="M 218 161.1 C 224.6 161.1 224.6 171.1 218 171.1 C 211.3 171.1 211.3 161.1 218 161.1 Z">
			</path>
			<path fill="rgb(223, 83, 83)" fill-opacity=" .5" d="M 160 213.6 C 166.6 213.6 166.6 223.6 160 223.6 C 153.3 223.6 153.3 213.6 160 213.6 Z">
			</path>
			<path fill="rgb(223, 83, 83)" fill-opacity=" .5" d="M 252 186.7 C 258.6 186.7 258.6 196.7 252 196.7 C 245.3 196.7 245.3 186.7 252 186.7 Z">
			</path>
			<path fill="rgb(223, 83, 83)" fill-opacity=" .5" d="M 132 199.4 C 138.6 199.4 138.6 209.4 132 209.4 C 125.3 209.4 125.3 199.4 132 199.4 Z">
			</path>
			<path fill="rgb(223, 83, 83)" fill-opacity=" .5" d="M 142 177.2 C 148.6 177.2 148.6 187.2 142 187.2 C 135.3 187.2 135.3 177.2 142 177.2 Z">
			</path>
			<path fill="rgb(223, 83, 83)" fill-opacity=" .5" d="M 163 209.8 C 169.6 209.8 169.6 219.8 163 219.8 C 156.3 219.8 156.3 209.8 163 209.8 Z">
			</path>
			<path fill="rgb(223, 83, 83)" fill-opacity=" .5" d="M 231 186.7 C 237.6 186.7 237.6 196.7 231 196.7 C 224.3 196.7 224.3 186.7 231 186.7 Z">
			</path>
			<path fill="rgb(223, 83, 83)" fill-opacity=" .5" d="M 178 204.2 C 184.6 204.2 184.6 214.2 178 214.2 C 171.3 214.2 171.3 204.2 178 204.2 Z">
			</path>
		</g>
		<g class="highcharts-series highcharts-series-1 highcharts-tracker" transform="translate(70,61) scale(1 1)" style="" clip-path="url(#highcharts-1)">
		</g>
		<g class="highcharts-markers highcharts-series-1 highcharts-tracker" transform="translate(70,61) scale(1 1)" style="" clip-path="none">
			<path fill="rgb(119, 152, 191)" fill-opacity=" .5" d="M 338 129.4 L 343 134.4 338 139.4 333 134.4 Z">
			</path>
			<path fill="rgb(119, 152, 191)" fill-opacity=" .5" d="M 338 129.4 L 343 134.4 338 139.4 333 134.4 Z">
			</path>
			<path fill="rgb(119, 152, 191)" fill-opacity=" .5" d="M 317 127.2 L 322 132.2 317 137.2 312 132.2 Z">
			</path>
			<path fill="rgb(119, 152, 191)" fill-opacity=" .5" d="M 424 93.9 L 429 98.9 424 103.9 419 98.9 Z">
			</path>
			<path fill="rgb(119, 152, 191)" fill-opacity=" .5" d="M 328 139.1 L 333 144.1 328 149.1 323 144.1 Z">
			</path>
			<path fill="rgb(119, 152, 191)" fill-opacity=" .5" d="M 317 130.6 L 322 135.6 317 140.6 312 135.6 Z">
			</path>
			<path fill="rgb(119, 152, 191)" fill-opacity=" .5" d="M 253 178.8 L 258 183.8 253 188.8 248 183.8 Z">
			</path>
			<path fill="rgb(119, 152, 191)" fill-opacity=" .5" d="M 328 115.4 L 333 120.4 328 125.4 323 120.4 Z">
			</path>
			<path fill="rgb(119, 152, 191)" fill-opacity=" .5" d="M 361 111.2 L 366 116.2 361 121.2 356 116.2 Z">
			</path>
			<path fill="rgb(119, 152, 191)" fill-opacity=" .5" d="M 361 170.3 L 366 175.3 361 180.3 356 175.3 Z">
			</path>
			<path fill="rgb(119, 152, 191)" fill-opacity=" .5" d="M 231 145.7 L 236 150.7 231 155.7 226 150.7 Z">
			</path>
			<path fill="rgb(119, 152, 191)" fill-opacity=" .5" d="M 338 153.0 L 343 158.0 338 163.0 333 158.0 Z">
			</path>
			<path fill="rgb(119, 152, 191)" fill-opacity=" .5" d="M 403 123.0 L 408 128.0 403 133.0 398 128.0 Z">
			</path>
			<path fill="rgb(119, 152, 191)" fill-opacity=" .5" d="M 231 150.9 L 236 155.9 231 160.9 226 155.9 Z">
			</path>
			<path fill="rgb(119, 152, 191)" fill-opacity=" .5" d="M 338 152.1 L 343 157.1 338 162.1 333 157.1 Z">
			</path>
			<path fill="rgb(119, 152, 191)" fill-opacity=" .5" d="M 306 131.5 L 311 136.5 306 141.5 301 136.5 Z">
			</path>
			<path fill="rgb(119, 152, 191)" fill-opacity=" .5" d="M 285 137 L 290 142 285 147 280 142 Z">
			</path>
			<path fill="rgb(119, 152, 191)" fill-opacity=" .5" d="M 403 119.7 L 408 124.7 403 129.7 398 124.7 Z">
			</path>
			<path fill="rgb(119, 152, 191)" fill-opacity=" .5" d="M 231 155.2 L 236 160.2 231 165.2 226 160.2 Z">
			</path>
			<path fill="rgb(119, 152, 191)" fill-opacity=" .5" d="M 253 143.3 L 258 148.3 253 153.3 248 148.3 Z">
			</path>
			<path fill="rgb(119, 152, 191)" fill-opacity=" .5" d="M 231 173.6 L 236 178.6 231 183.6 226 178.6 Z">
			</path>
			<path fill="rgb(119, 152, 191)" fill-opacity=" .5" d="M 285 158.5 L 290 163.5 285 168.5 280 163.5 Z">
			</path>
			<path fill="rgb(119, 152, 191)" fill-opacity=" .5" d="M 403 103.1 L 408 108.1 403 113.1 398 108.1 Z">
			</path>
			<path fill="rgb(119, 152, 191)" fill-opacity=" .5" d="M 306 118.3 L 311 123.3 306 128.3 301 123.3 Z">
			</path>
			<path fill="rgb(119, 152, 191)" fill-opacity=" .5" d="M 328 156.4 L 333 161.4 328 166.4 323 161.4 Z">
			</path>
			<path fill="rgb(119, 152, 191)" fill-opacity=" .5" d="M 371 143.3 L 376 148.3 371 153.3 366 148.3 Z">
			</path>
			<path fill="rgb(119, 152, 191)" fill-opacity=" .5" d="M 317 83.7 L 322 88.7 317 93.7 312 88.7 Z">
			</path>
			<path fill="rgb(119, 152, 191)" fill-opacity=" .5" d="M 360 125.1 L 365 130.1 360 135.1 355 130.1 Z">
			</path>
			<path fill="rgb(119, 152, 191)" fill-opacity=" .5" d="M 317 145.0 L 322 150.0 317 155.0 312 150.0 Z">
			</path>
			<path fill="rgb(119, 152, 191)" fill-opacity=" .5" d="M 349 126.3 L 354 131.3 349 136.3 344 131.3 Z">
			</path>
			<path fill="rgb(119, 152, 191)" fill-opacity=" .5" d="M 328 147.6 L 333 152.6 328 157.6 323 152.6 Z">
			</path>
			<path fill="rgb(119, 152, 191)" fill-opacity=" .5" d="M 296 132.7 L 301 137.7 296 142.7 291 137.7 Z">
			</path>
			<path fill="rgb(119, 152, 191)" fill-opacity=" .5" d="M 301 142.4 L 306 147.4 301 152.4 296 147.4 Z">
			</path>
			<path fill="rgb(119, 152, 191)" fill-opacity=" .5" d="M 296 167.0 L 301 172.0 296 177.0 291 172.0 Z">
			</path>
			<path fill="rgb(119, 152, 191)" fill-opacity=" .5" d="M 296 110.7 L 301 115.7 296 120.7 291 115.7 Z">
			</path>
			<path fill="rgb(119, 152, 191)" fill-opacity=" .5" d="M 392 86.3 L 397 91.3 392 96.3 387 91.3 Z">
			</path>
			<path fill="rgb(119, 152, 191)" fill-opacity=" .5" d="M 231 147.6 L 236 152.6 231 157.6 226 152.6 Z">
			</path>
			<path fill="rgb(119, 152, 191)" fill-opacity=" .5" d="M 338 116.6 L 343 121.6 338 126.6 333 121.6 Z">
			</path>
			<path fill="rgb(119, 152, 191)" fill-opacity=" .5" d="M 168 155.2 L 173 160.2 168 165.2 163 160.2 Z">
			</path>
			<path fill="rgb(119, 152, 191)" fill-opacity=" .5" d="M 360 119.7 L 365 124.7 360 129.7 355 124.7 Z">
			</path>
			<path fill="rgb(119, 152, 191)" fill-opacity=" .5" d="M 231 168.2 L 236 173.2 231 178.2 226 173.2 Z">
			</path>
			<path fill="rgb(119, 152, 191)" fill-opacity=" .5" d="M 285 151.4 L 290 156.4 285 161.4 280 156.4 Z">
			</path>
			<path fill="rgb(119, 152, 191)" fill-opacity=" .5" d="M 338 123.9 L 343 128.9 338 133.9 333 128.9 Z">
			</path>
			<path fill="rgb(119, 152, 191)" fill-opacity=" .5" d="M 381 128.4 L 386 133.4 381 138.4 376 133.4 Z">
			</path>
			<path fill="rgb(119, 152, 191)" fill-opacity=" .5" d="M 242 148.8 L 247 153.8 242 158.8 237 153.8 Z">
			</path>
			<path fill="rgb(119, 152, 191)" fill-opacity=" .5" d="M 381 103.6 L 386 108.6 381 113.6 376 108.6 Z">
			</path>
			<path fill="rgb(119, 152, 191)" fill-opacity=" .5" d="M 317 181.0 L 322 186.0 317 191.0 312 186.0 Z">
			</path>
			<path fill="rgb(119, 152, 191)" fill-opacity=" .5" d="M 338 142.4 L 343 147.4 338 152.4 333 147.4 Z">
			</path>
			<path fill="rgb(119, 152, 191)" fill-opacity=" .5" d="M 403 105.7 L 408 110.7 403 115.7 398 110.7 Z">
			</path>
			<path fill="rgb(119, 152, 191)" fill-opacity=" .5" d="M 258 105.7 L 263 110.7 258 115.7 253 110.7 Z">
			</path>
			<path fill="rgb(119, 152, 191)" fill-opacity=" .5" d="M 360 148.8 L 365 153.8 360 158.8 355 153.8 Z">
			</path>
			<path fill="rgb(119, 152, 191)" fill-opacity=" .5" d="M 296 158.5 L 301 163.5 296 168.5 291 163.5 Z">
			</path>
			<path fill="rgb(119, 152, 191)" fill-opacity=" .5" d="M 317 104.8 L 322 109.8 317 114.8 312 109.8 Z">
			</path>
			<path fill="rgb(119, 152, 191)" fill-opacity=" .5" d="M 328 106.9 L 333 111.9 328 116.9 323 111.9 Z">
			</path>
			<path fill="rgb(119, 152, 191)" fill-opacity=" .5" d="M 256 166.1 L 261 171.1 256 176.1 251 171.1 Z">
			</path>
			<path fill="rgb(119, 152, 191)" fill-opacity=" .5" d="M 296 121.8 L 301 126.8 296 131.8 291 126.8 Z">
			</path>
			<path fill="rgb(119, 152, 191)" fill-opacity=" .5" d="M 403 130.6 L 408 135.6 403 140.6 398 135.6 Z">
			</path>
			<path fill="rgb(119, 152, 191)" fill-opacity=" .5" d="M 403 135.8 L 408 140.8 403 145.8 398 140.8 Z">
			</path>
			<path fill="rgb(119, 152, 191)" fill-opacity=" .5" d="M 296 152.1 L 301 157.1 296 162.1 291 157.1 Z">
			</path>
			<path fill="rgb(119, 152, 191)" fill-opacity=" .5" d="M 296 162.7 L 301 167.7 296 172.7 291 167.7 Z">
			</path>
			<path fill="rgb(119, 152, 191)" fill-opacity=" .5" d="M 306 125.1 L 311 130.1 306 135.1 301 130.1 Z">
			</path>
			<path fill="rgb(119, 152, 191)" fill-opacity=" .5" d="M 360 115.4 L 365 120.4 360 125.4 355 120.4 Z">
			</path>
			<path fill="rgb(119, 152, 191)" fill-opacity=" .5" d="M 403 110.0 L 408 115.0 403 120.0 398 115.0 Z">
			</path>
			<path fill="rgb(119, 152, 191)" fill-opacity=" .5" d="M 403 112.1 L 408 117.1 403 122.1 398 117.1 Z">
			</path>
			<path fill="rgb(119, 152, 191)" fill-opacity=" .5" d="M 381 127.2 L 386 132.2 381 137.2 376 132.2 Z">
			</path>
			<path fill="rgb(119, 152, 191)" fill-opacity=" .5" d="M 381 132.7 L 386 137.7 381 142.7 376 137.7 Z">
			</path>
			<path fill="rgb(119, 152, 191)" fill-opacity=" .5" d="M 263 160.6 L 268 165.6 263 170.6 258 165.6 Z">
			</path>
			<path fill="rgb(119, 152, 191)" fill-opacity=" .5" d="M 317 135.8 L 322 140.8 317 145.8 312 140.8 Z">
			</path>
			<path fill="rgb(119, 152, 191)" fill-opacity=" .5" d="M 285 131.0 L 290 136.0 285 141.0 280 136.0 Z">
			</path>
			<path fill="rgb(119, 152, 191)" fill-opacity=" .5" d="M 317 132.7 L 322 137.7 317 142.7 312 137.7 Z">
			</path>
			<path fill="rgb(119, 152, 191)" fill-opacity=" .5" d="M 403 123.0 L 408 128.0 403 133.0 398 128.0 Z">
			</path>
			<path fill="rgb(119, 152, 191)" fill-opacity=" .5" d="M 403 127.2 L 408 132.2 403 137.2 398 132.2 Z">
			</path>
			<path fill="rgb(119, 152, 191)" fill-opacity=" .5" d="M 392 109.0 L 397 114.0 392 119.0 387 114.0 Z">
			</path>
			<path fill="rgb(119, 152, 191)" fill-opacity=" .5" d="M 306 152.1 L 311 157.1 306 162.1 301 157.1 Z">
			</path>
			<path fill="rgb(119, 152, 191)" fill-opacity=" .5" d="M 360 138.1 L 365 143.1 360 148.1 355 143.1 Z">
			</path>
			<path fill="rgb(119, 152, 191)" fill-opacity=" .5" d="M 338 147.6 L 343 152.6 338 157.6 333 152.6 Z">
			</path>
			<path fill="rgb(119, 152, 191)" fill-opacity=" .5" d="M 231 130.6 L 236 135.6 231 140.6 226 135.6 Z">
			</path>
			<path fill="rgb(119, 152, 191)" fill-opacity=" .5" d="M 231 162.7 L 236 167.7 231 172.7 226 167.7 Z">
			</path>
			<path fill="rgb(119, 152, 191)" fill-opacity=" .5" d="M 317 97.2 L 322 102.2 317 107.2 312 102.2 Z">
			</path>
			<path fill="rgb(119, 152, 191)" fill-opacity=" .5" d="M 317 132.7 L 322 137.7 317 142.7 312 137.7 Z">
			</path>
			<path fill="rgb(119, 152, 191)" fill-opacity=" .5" d="M 263 110.0 L 268 115.0 263 120.0 258 115.0 Z">
			</path>
			<path fill="rgb(119, 152, 191)" fill-opacity=" .5" d="M 445 99.3 L 450 104.3 445 109.3 440 104.3 Z">
			</path>
			<path fill="rgb(119, 152, 191)" fill-opacity=" .5" d="M 253 170.3 L 258 175.3 253 180.3 248 175.3 Z">
			</path>
			<path fill="rgb(119, 152, 191)" fill-opacity=" .5" d="M 296 156.4 L 301 161.4 296 166.4 291 161.4 Z">
			</path>
			<path fill="rgb(119, 152, 191)" fill-opacity=" .5" d="M 328 119.7 L 333 124.7 328 129.7 323 124.7 Z">
			</path>
			<path fill="rgb(119, 152, 191)" fill-opacity=" .5" d="M 424 127.2 L 429 132.2 424 137.2 419 132.2 Z">
			</path>
			<path fill="rgb(119, 152, 191)" fill-opacity=" .5" d="M 274 99.3 L 279 104.3 274 109.3 269 104.3 Z">
			</path>
			<path fill="rgb(119, 152, 191)" fill-opacity=" .5" d="M 349 159.4 L 354 164.4 349 169.4 344 164.4 Z">
			</path>
			<path fill="rgb(119, 152, 191)" fill-opacity=" .5" d="M 381 84.2 L 386 89.2 381 94.2 376 89.2 Z">
			</path>
			<path fill="rgb(119, 152, 191)" fill-opacity=" .5" d="M 210 169.1 L 215 174.1 210 179.1 205 174.1 Z">
			</path>
			<path fill="rgb(119, 152, 191)" fill-opacity=" .5" d="M 296 166.1 L 301 171.1 296 176.1 291 171.1 Z">
			</path>
			<path fill="rgb(119, 152, 191)" fill-opacity=" .5" d="M 231 163.9 L 236 168.9 231 173.9 226 168.9 Z">
			</path>
			<path fill="rgb(119, 152, 191)" fill-opacity=" .5" d="M 253 123.9 L 258 128.9 253 133.9 248 128.9 Z">
			</path>
			<path fill="rgb(119, 152, 191)" fill-opacity=" .5" d="M 360 134.8 L 365 139.8 360 144.8 355 139.8 Z">
			</path>
			<path fill="rgb(119, 152, 191)" fill-opacity=" .5" d="M 317 134.8 L 322 139.8 317 144.8 312 139.8 Z">
			</path>
			<path fill="rgb(119, 152, 191)" fill-opacity=" .5" d="M 317 175.8 L 322 180.8 317 185.8 312 180.8 Z">
			</path>
			<path fill="rgb(119, 152, 191)" fill-opacity=" .5" d="M 274 144.5 L 279 149.5 274 154.5 269 149.5 Z">
			</path>
			<path fill="rgb(119, 152, 191)" fill-opacity=" .5" d="M 274 127.2 L 279 132.2 274 137.2 269 132.2 Z">
			</path>
			<path fill="rgb(119, 152, 191)" fill-opacity=" .5" d="M 263 154.2 L 268 159.2 263 164.2 258 159.2 Z">
			</path>
			<path fill="rgb(119, 152, 191)" fill-opacity=" .5" d="M 338 157.3 L 343 162.3 338 167.3 333 162.3 Z">
			</path>
			<path fill="rgb(119, 152, 191)" fill-opacity=" .5" d="M 317 155.9 L 322 160.9 317 165.9 312 160.9 Z">
			</path>
			<path fill="rgb(119, 152, 191)" fill-opacity=" .5" d="M 306 136.5 L 311 141.5 306 146.5 301 141.5 Z">
			</path>
			<path fill="rgb(119, 152, 191)" fill-opacity=" .5" d="M 371 102.6 L 376 107.6 371 112.6 366 107.6 Z">
			</path>
			<path fill="rgb(119, 152, 191)" fill-opacity=" .5" d="M 317 118.7 L 322 123.7 317 128.7 312 123.7 Z">
			</path>
			<path fill="rgb(119, 152, 191)" fill-opacity=" .5" d="M 424 134.8 L 429 139.8 424 144.8 419 139.8 Z">
			</path>
			<path fill="rgb(119, 152, 191)" fill-opacity=" .5" d="M 317 121.8 L 322 126.8 317 131.8 312 126.8 Z">
			</path>
			<path fill="rgb(119, 152, 191)" fill-opacity=" .5" d="M 424 69.3 L 429 74.3 424 79.3 419 74.3 Z">
			</path>
			<path fill="rgb(119, 152, 191)" fill-opacity=" .5" d="M 253 162.7 L 258 167.7 253 172.7 248 167.7 Z">
			</path>
			<path fill="rgb(119, 152, 191)" fill-opacity=" .5" d="M 296 173.6 L 301 178.6 296 183.6 291 178.6 Z">
			</path>
			<path fill="rgb(119, 152, 191)" fill-opacity=" .5" d="M 231 126.3 L 236 131.3 231 136.3 226 131.3 Z">
			</path>
			<path fill="rgb(119, 152, 191)" fill-opacity=" .5" d="M 242 162.7 L 247 167.7 242 172.7 237 167.7 Z">
			</path>
			<path fill="rgb(119, 152, 191)" fill-opacity=" .5" d="M 381 145.5 L 386 150.5 381 155.5 376 150.5 Z">
			</path>
			<path fill="rgb(119, 152, 191)" fill-opacity=" .5" d="M 424 152.1 L 429 157.1 424 162.1 419 157.1 Z">
			</path>
			<path fill="rgb(119, 152, 191)" fill-opacity=" .5" d="M 274 111.2 L 279 116.2 274 121.2 269 116.2 Z">
			</path>
			<path fill="rgb(119, 152, 191)" fill-opacity=" .5" d="M 333 121.8 L 338 126.8 333 131.8 328 126.8 Z">
			</path>
			<path fill="rgb(119, 152, 191)" fill-opacity=" .5" d="M 317 142.4 L 322 147.4 317 152.4 312 147.4 Z">
			</path>
			<path fill="rgb(119, 152, 191)" fill-opacity=" .5" d="M 221 148.8 L 226 153.8 221 158.8 216 153.8 Z">
			</path>
			<path fill="rgb(119, 152, 191)" fill-opacity=" .5" d="M 424 115.4 L 429 120.4 424 125.4 419 120.4 Z">
			</path>
			<path fill="rgb(119, 152, 191)" fill-opacity=" .5" d="M 221 123.0 L 226 128.0 221 133.0 216 128.0 Z">
			</path>
			<path fill="rgb(119, 152, 191)" fill-opacity=" .5" d="M 296 111.2 L 301 116.2 296 121.2 291 116.2 Z">
			</path>
			<path fill="rgb(119, 152, 191)" fill-opacity=" .5" d="M 488 123.9 L 493 128.9 488 133.9 483 128.9 Z">
			</path>
			<path fill="rgb(119, 152, 191)" fill-opacity=" .5" d="M 403 128.4 L 408 133.4 403 138.4 398 133.4 Z">
			</path>
			<path fill="rgb(119, 152, 191)" fill-opacity=" .5" d="M 199 155.4 L 204 160.4 199 165.4 194 160.4 Z">
			</path>
			<path fill="rgb(119, 152, 191)" fill-opacity=" .5" d="M 317 50.8 L 322 55.8 317 60.8 312 55.8 Z">
			</path>
			<path fill="rgb(119, 152, 191)" fill-opacity=" .5" d="M 317 156.4 L 322 161.4 317 166.4 312 161.4 Z">
			</path>
			<path fill="rgb(119, 152, 191)" fill-opacity=" .5" d="M 317 140.3 L 322 145.3 317 150.3 312 145.3 Z">
			</path>
			<path fill="rgb(119, 152, 191)" fill-opacity=" .5" d="M 317 138.1 L 322 143.1 317 148.1 312 143.1 Z">
			</path>
			<path fill="rgb(119, 152, 191)" fill-opacity=" .5" d="M 317 189.0 L 322 194.0 317 199.0 312 194.0 Z">
			</path>
			<path fill="rgb(119, 152, 191)" fill-opacity=" .5" d="M 338 130.6 L 343 135.6 338 140.6 333 135.6 Z">
			</path>
			<path fill="rgb(119, 152, 191)" fill-opacity=" .5" d="M 338 105.7 L 343 110.7 338 115.7 333 110.7 Z">
			</path>
			<path fill="rgb(119, 152, 191)" fill-opacity=" .5" d="M 317 147.6 L 322 152.6 317 157.6 312 152.6 Z">
			</path>
			<path fill="rgb(119, 152, 191)" fill-opacity=" .5" d="M 381 168.2 L 386 173.2 381 178.2 376 173.2 Z">
			</path>
			<path fill="rgb(119, 152, 191)" fill-opacity=" .5" d="M 296 127.2 L 301 132.2 296 137.2 291 132.2 Z">
			</path>
			<path fill="rgb(119, 152, 191)" fill-opacity=" .5" d="M 285 116.6 L 290 121.6 285 126.6 280 121.6 Z">
			</path>
			<path fill="rgb(119, 152, 191)" fill-opacity=" .5" d="M 210 172.5 L 215 177.5 210 182.5 205 177.5 Z">
			</path>
			<path fill="rgb(119, 152, 191)" fill-opacity=" .5" d="M 392 121.8 L 397 126.8 392 131.8 387 126.8 Z">
			</path>
			<path fill="rgb(119, 152, 191)" fill-opacity=" .5" d="M 210 172.5 L 215 177.5 210 182.5 205 177.5 Z">
			</path>
			<path fill="rgb(119, 152, 191)" fill-opacity=" .5" d="M 274 155.2 L 279 160.2 274 165.2 269 160.2 Z">
			</path>
			<path fill="rgb(119, 152, 191)" fill-opacity=" .5" d="M 317 174.6 L 322 179.6 317 184.6 312 179.6 Z">
			</path>
			<path fill="rgb(119, 152, 191)" fill-opacity=" .5" d="M 253 154.2 L 258 159.2 253 164.2 248 159.2 Z">
			</path>
			<path fill="rgb(119, 152, 191)" fill-opacity=" .5" d="M 338 129.4 L 343 134.4 338 139.4 333 134.4 Z">
			</path>
			<path fill="rgb(119, 152, 191)" fill-opacity=" .5" d="M 144 188.1 L 149 193.1 144 198.1 139 193.1 Z">
			</path>
			<path fill="rgb(119, 152, 191)" fill-opacity=" .5" d="M 242 194.9 L 247 199.9 242 204.9 237 199.9 Z">
			</path>
			<path fill="rgb(119, 152, 191)" fill-opacity=" .5" d="M 320 155.9 L 325 160.9 320 165.9 315 160.9 Z">
			</path>
			<path fill="rgb(119, 152, 191)" fill-opacity=" .5" d="M 230 198.7 L 235 203.7 230 208.7 225 203.7 Z">
			</path>
			<path fill="rgb(119, 152, 191)" fill-opacity=" .5" d="M 313 153.0 L 318 158.0 313 163.0 308 158.0 Z">
			</path>
			<path fill="rgb(119, 152, 191)" fill-opacity=" .5" d="M 377 121.8 L 382 126.8 377 131.8 372 126.8 Z">
			</path>
			<path fill="rgb(119, 152, 191)" fill-opacity=" .5" d="M 296 118.7 L 301 123.7 296 128.7 291 123.7 Z">
			</path>
			<path fill="rgb(119, 152, 191)" fill-opacity=" .5" d="M 334 126.3 L 339 131.3 334 136.3 329 131.3 Z">
			</path>
			<path fill="rgb(119, 152, 191)" fill-opacity=" .5" d="M 353 147.1 L 358 152.1 353 157.1 348 152.1 Z">
			</path>
			<path fill="rgb(119, 152, 191)" fill-opacity=" .5" d="M 246 170.3 L 251 175.3 246 180.3 241 175.3 Z">
			</path>
			<path fill="rgb(119, 152, 191)" fill-opacity=" .5" d="M 306 164.4 L 311 169.4 306 174.4 301 169.4 Z">
			</path>
			<path fill="rgb(119, 152, 191)" fill-opacity=" .5" d="M 436 84.2 L 441 89.2 436 94.2 431 89.2 Z">
			</path>
			<path fill="rgb(119, 152, 191)" fill-opacity=" .5" d="M 310 163.2 L 315 168.2 310 173.2 305 168.2 Z">
			</path>
			<path fill="rgb(119, 152, 191)" fill-opacity=" .5" d="M 210 159.4 L 215 164.4 210 169.4 205 164.4 Z">
			</path>
			<path fill="rgb(119, 152, 191)" fill-opacity=" .5" d="M 285 152.6 L 290 157.6 285 162.6 280 157.6 Z">
			</path>
			<path fill="rgb(119, 152, 191)" fill-opacity=" .5" d="M 294 160.1 L 299 165.1 294 170.1 289 165.1 Z">
			</path>
			<path fill="rgb(119, 152, 191)" fill-opacity=" .5" d="M 306 153.5 L 311 158.5 306 163.5 301 158.5 Z">
			</path>
			<path fill="rgb(119, 152, 191)" fill-opacity=" .5" d="M 349 147.6 L 354 152.6 349 157.6 344 152.6 Z">
			</path>
			<path fill="rgb(119, 152, 191)" fill-opacity=" .5" d="M 311 128.9 L 316 133.9 311 138.9 306 133.9 Z">
			</path>
			<path fill="rgb(119, 152, 191)" fill-opacity=" .5" d="M 310 154.7 L 315 159.7 310 164.7 305 159.7 Z">
			</path>
			<path fill="rgb(119, 152, 191)" fill-opacity=" .5" d="M 341 154.7 L 346 159.7 341 164.7 336 159.7 Z">
			</path>
			<path fill="rgb(119, 152, 191)" fill-opacity=" .5" d="M 298 158.5 L 303 163.5 298 168.5 293 163.5 Z">
			</path>
			<path fill="rgb(119, 152, 191)" fill-opacity=" .5" d="M 372 165.4 L 377 170.4 372 175.4 367 170.4 Z">
			</path>
			<path fill="rgb(119, 152, 191)" fill-opacity=" .5" d="M 341 154.2 L 346 159.2 341 164.2 336 159.2 Z">
			</path>
			<path fill="rgb(119, 152, 191)" fill-opacity=" .5" d="M 298 134.8 L 303 139.8 298 144.8 293 139.8 Z">
			</path>
			<path fill="rgb(119, 152, 191)" fill-opacity=" .5" d="M 336 106.2 L 341 111.2 336 116.2 331 111.2 Z">
			</path>
			<path fill="rgb(119, 152, 191)" fill-opacity=" .5" d="M 479 111.2 L 484 116.2 479 121.2 474 116.2 Z">
			</path>
			<path fill="rgb(119, 152, 191)" fill-opacity=" .5" d="M 356 150.0 L 361 155.0 356 160.0 351 155.0 Z">
			</path>
			<path fill="rgb(119, 152, 191)" fill-opacity=" .5" d="M 256 191.9 L 261 196.9 256 201.9 251 196.9 Z">
			</path>
			<path fill="rgb(119, 152, 191)" fill-opacity=" .5" d="M 315 155.9 L 320 160.9 315 165.9 310 160.9 Z">
			</path>
			<path fill="rgb(119, 152, 191)" fill-opacity=" .5" d="M 289 175.1 L 294 180.1 289 185.1 284 180.1 Z">
			</path>
			<path fill="rgb(119, 152, 191)" fill-opacity=" .5" d="M 310 164.9 L 315 169.9 310 174.9 305 169.9 Z">
			</path>
			<path fill="rgb(119, 152, 191)" fill-opacity=" .5" d="M 345 170.1 L 350 175.1 345 180.1 340 175.1 Z">
			</path>
			<path fill="rgb(119, 152, 191)" fill-opacity=" .5" d="M 230 166.1 L 235 171.1 230 176.1 225 171.1 Z">
			</path>
			<path fill="rgb(119, 152, 191)" fill-opacity=" .5" d="M 349 139.6 L 354 144.6 349 149.6 344 144.6 Z">
			</path>
			<path fill="rgb(119, 152, 191)" fill-opacity=" .5" d="M 262 139.1 L 267 144.1 262 149.1 257 144.1 Z">
			</path>
			<path fill="rgb(119, 152, 191)" fill-opacity=" .5" d="M 298 176.7 L 303 181.7 298 186.7 293 181.7 Z">
			</path>
			<path fill="rgb(119, 152, 191)" fill-opacity=" .5" d="M 436 85.8 L 441 90.8 436 95.8 431 90.8 Z">
			</path>
			<path fill="rgb(119, 152, 191)" fill-opacity=" .5" d="M 205 160.6 L 210 165.6 205 170.6 200 165.6 Z">
			</path>
			<path fill="rgb(119, 152, 191)" fill-opacity=" .5" d="M 317 149.3 L 322 154.3 317 159.3 312 154.3 Z">
			</path>
			<path fill="rgb(119, 152, 191)" fill-opacity=" .5" d="M 226 173.4 L 231 178.4 226 183.4 221 178.4 Z">
			</path>
			<path fill="rgb(119, 152, 191)" fill-opacity=" .5" d="M 352 155.9 L 357 160.9 352 165.9 347 160.9 Z">
			</path>
			<path fill="rgb(119, 152, 191)" fill-opacity=" .5" d="M 267 169.8 L 272 174.8 267 179.8 262 174.8 Z">
			</path>
			<path fill="rgb(119, 152, 191)" fill-opacity=" .5" d="M 226 164.9 L 231 169.9 226 174.9 221 169.9 Z">
			</path>
			<path fill="rgb(119, 152, 191)" fill-opacity=" .5" d="M 386 125.6 L 391 130.6 386 135.6 381 130.6 Z">
			</path>
			<path fill="rgb(119, 152, 191)" fill-opacity=" .5" d="M 310 156.8 L 315 161.8 310 166.8 305 161.8 Z">
			</path>
			<path fill="rgb(119, 152, 191)" fill-opacity=" .5" d="M 285 155.4 L 290 160.4 285 165.4 280 160.4 Z">
			</path>
			<path fill="rgb(119, 152, 191)" fill-opacity=" .5" d="M 285 120.9 L 290 125.9 285 130.9 280 125.9 Z">
			</path>
			<path fill="rgb(119, 152, 191)" fill-opacity=" .5" d="M 371 144.5 L 376 149.5 371 154.5 366 149.5 Z">
			</path>
			<path fill="rgb(119, 152, 191)" fill-opacity=" .5" d="M 264 181.0 L 269 186.0 264 191.0 259 186.0 Z">
			</path>
			<path fill="rgb(119, 152, 191)" fill-opacity=" .5" d="M 193 191.4 L 198 196.4 193 201.4 188 196.4 Z">
			</path>
			<path fill="rgb(119, 152, 191)" fill-opacity=" .5" d="M 202 195.6 L 207 200.6 202 205.6 197 200.6 Z">
			</path>
			<path fill="rgb(119, 152, 191)" fill-opacity=" .5" d="M 354 120.1 L 359 125.1 354 130.1 349 125.1 Z">
			</path>
			<path fill="rgb(119, 152, 191)" fill-opacity=" .5" d="M 274 148.1 L 279 153.1 274 158.1 269 153.1 Z">
			</path>
			<path fill="rgb(119, 152, 191)" fill-opacity=" .5" d="M 285 122.3 L 290 127.3 285 132.3 280 127.3 Z">
			</path>
			<path fill="rgb(119, 152, 191)" fill-opacity=" .5" d="M 247 147.4 L 252 152.4 247 157.4 242 152.4 Z">
			</path>
			<path fill="rgb(119, 152, 191)" fill-opacity=" .5" d="M 226 186.4 L 231 191.4 226 196.4 221 191.4 Z">
			</path>
			<path fill="rgb(119, 152, 191)" fill-opacity=" .5" d="M 269 149.0 L 274 154.0 269 159.0 264 154.0 Z">
			</path>
			<path fill="rgb(119, 152, 191)" fill-opacity=" .5" d="M 312 103.6 L 317 108.6 312 113.6 307 108.6 Z">
			</path>
			<path fill="rgb(119, 152, 191)" fill-opacity=" .5" d="M 403 127.2 L 408 132.2 403 137.2 398 132.2 Z">
			</path>
			<path fill="rgb(119, 152, 191)" fill-opacity=" .5" d="M 360 116.4 L 365 121.4 360 126.4 355 121.4 Z">
			</path>
			<path fill="rgb(119, 152, 191)" fill-opacity=" .5" d="M 338 130.8 L 343 135.8 338 140.8 333 135.8 Z">
			</path>
			<path fill="rgb(119, 152, 191)" fill-opacity=" .5" d="M 296 155.6 L 301 160.6 296 165.6 291 160.6 Z">
			</path>
			<path fill="rgb(119, 152, 191)" fill-opacity=" .5" d="M 274 152.6 L 279 157.6 274 162.6 269 157.6 Z">
			</path>
			<path fill="rgb(119, 152, 191)" fill-opacity=" .5" d="M 263 125.8 L 268 130.8 263 135.8 258 130.8 Z">
			</path>
			<path fill="rgb(119, 152, 191)" fill-opacity=" .5" d="M 392 118.5 L 397 123.5 392 128.5 387 123.5 Z">
			</path>
			<path fill="rgb(119, 152, 191)" fill-opacity=" .5" d="M 371 136.7 L 376 141.7 371 146.7 366 141.7 Z">
			</path>
			<path fill="rgb(119, 152, 191)" fill-opacity=" .5" d="M 317 163.9 L 322 168.9 317 173.9 312 168.9 Z">
			</path>
			<path fill="rgb(119, 152, 191)" fill-opacity=" .5" d="M 252 181.2 L 257 186.2 252 191.2 247 186.2 Z">
			</path>
			<path fill="rgb(119, 152, 191)" fill-opacity=" .5" d="M 352 167.2 L 357 172.2 352 177.2 347 172.2 Z">
			</path>
			<path fill="rgb(119, 152, 191)" fill-opacity=" .5" d="M 252 185.5 L 257 190.5 252 195.5 247 190.5 Z">
			</path>
			<path fill="rgb(119, 152, 191)" fill-opacity=" .5" d="M 275 162.7 L 280 167.7 275 172.7 270 167.7 Z">
			</path>
			<path fill="rgb(119, 152, 191)" fill-opacity=" .5" d="M 413 127.2 L 418 132.2 413 137.2 408 132.2 Z">
			</path>
			<path fill="rgb(119, 152, 191)" fill-opacity=" .5" d="M 403 154.9 L 408 159.9 403 164.9 398 159.9 Z">
			</path>
			<path fill="rgb(119, 152, 191)" fill-opacity=" .5" d="M 298 160.6 L 303 165.6 298 170.6 293 165.6 Z">
			</path>
			<path fill="rgb(119, 152, 191)" fill-opacity=" .5" d="M 365 149.3 L 370 154.3 365 159.3 360 154.3 Z">
			</path>
			<path fill="rgb(119, 152, 191)" fill-opacity=" .5" d="M 277 182.2 L 282 187.2 277 192.2 272 187.2 Z">
			</path>
			<path fill="rgb(119, 152, 191)" fill-opacity=" .5" d="M 205 176.7 L 210 181.7 205 186.7 200 181.7 Z">
			</path>
			<path fill="rgb(119, 152, 191)" fill-opacity=" .5" d="M 338 145.5 L 343 150.5 338 155.5 333 150.5 Z">
			</path>
			<path fill="rgb(119, 152, 191)" fill-opacity=" .5" d="M 338 130.3 L 343 135.3 338 140.3 333 135.3 Z">
			</path>
			<path fill="rgb(119, 152, 191)" fill-opacity=" .5" d="M 319 114.2 L 324 119.2 319 124.2 314 119.2 Z">
			</path>
			<path fill="rgb(119, 152, 191)" fill-opacity=" .5" d="M 281 132.7 L 286 137.7 281 142.7 276 137.7 Z">
			</path>
			<path fill="rgb(119, 152, 191)" fill-opacity=" .5" d="M 302 121.8 L 307 126.8 302 131.8 297 126.8 Z">
			</path>
			<path fill="rgb(119, 152, 191)" fill-opacity=" .5" d="M 274 169.6 L 279 174.6 274 179.6 269 174.6 Z">
			</path>
			<path fill="rgb(119, 152, 191)" fill-opacity=" .5" d="M 340 142.2 L 345 147.2 340 152.2 335 147.2 Z">
			</path>
			<path fill="rgb(119, 152, 191)" fill-opacity=" .5" d="M 302 139.8 L 307 144.8 302 149.8 297 144.8 Z">
			</path>
			<path fill="rgb(119, 152, 191)" fill-opacity=" .5" d="M 302 123.0 L 307 128.0 302 133.0 297 128.0 Z">
			</path>
			<path fill="rgb(119, 152, 191)" fill-opacity=" .5" d="M 277 154.9 L 282 159.9 277 164.9 272 159.9 Z">
			</path>
			<path fill="rgb(119, 152, 191)" fill-opacity=" .5" d="M 264 160.6 L 269 165.6 264 170.6 259 165.6 Z">
			</path>
			<path fill="rgb(119, 152, 191)" fill-opacity=" .5" d="M 442 104.3 L 447 109.3 442 114.3 437 109.3 Z">
			</path>
			<path fill="rgb(119, 152, 191)" fill-opacity=" .5" d="M 369 137.9 L 374 142.9 369 147.9 364 142.9 Z">
			</path>
			<path fill="rgb(119, 152, 191)" fill-opacity=" .5" d="M 285 158.3 L 290 163.3 285 168.3 280 163.3 Z">
			</path>
			<path fill="rgb(119, 152, 191)" fill-opacity=" .5" d="M 302 149.7 L 307 154.7 302 159.7 297 154.7 Z">
			</path>
			<path fill="rgb(119, 152, 191)" fill-opacity=" .5" d="M 436 113.3 L 441 118.3 436 123.3 431 118.3 Z">
			</path>
			<path fill="rgb(119, 152, 191)" fill-opacity=" .5" d="M 317 128.4 L 322 133.4 317 138.4 312 133.4 Z">
			</path>
			<path fill="rgb(119, 152, 191)" fill-opacity=" .5" d="M 336 145.0 L 341 150.0 336 155.0 331 150.0 Z">
			</path>
			<path fill="rgb(119, 152, 191)" fill-opacity=" .5" d="M 369 133.2 L 374 138.2 369 143.2 364 138.2 Z">
			</path>
			<path fill="rgb(119, 152, 191)" fill-opacity=" .5" d="M 294 179.6 L 299 184.6 294 189.6 289 184.6 Z">
			</path>
			<path fill="rgb(119, 152, 191)" fill-opacity=" .5" d="M 373 140.7 L 378 145.7 373 150.7 368 145.7 Z">
			</path>
			<path fill="rgb(119, 152, 191)" fill-opacity=" .5" d="M 369 121.8 L 374 126.8 369 131.8 364 126.8 Z">
			</path>
			<path fill="rgb(119, 152, 191)" fill-opacity=" .5" d="M 348 149.3 L 353 154.3 348 159.3 343 154.3 Z">
			</path>
			<path fill="rgb(119, 152, 191)" fill-opacity=" .5" d="M 396 139.8 L 401 144.8 396 149.8 391 144.8 Z">
			</path>
			<path fill="rgb(119, 152, 191)" fill-opacity=" .5" d="M 390 154.5 L 395 159.5 390 164.5 385 159.5 Z">
			</path>
			<path fill="rgb(119, 152, 191)" fill-opacity=" .5" d="M 449 135.3 L 454 140.3 449 145.3 444 140.3 Z">
			</path>
			<path fill="rgb(119, 152, 191)" fill-opacity=" .5" d="M 296 156.4 L 301 161.4 296 166.4 291 161.4 Z">
			</path>
			<path fill="rgb(119, 152, 191)" fill-opacity=" .5" d="M 285 171.0 L 290 176.0 285 181.0 280 176.0 Z">
			</path>
		</g>
	</g>
	<text x="292" text-anchor="middle" class="highcharts-title" style="color:#333333;font-size:18px;fill:#333333;width:520px;" y="24">
		<tspan>Height Versus Weight of 507 Individuals by Gender
		</tspan>
	</text>
	<text x="292" text-anchor="middle" class="highcharts-subtitle" style="color:#555555;fill:#555555;width:520px;" y="45">
		<tspan>Source: Heinz  2003
		</tspan>
	</text>
	<g class="highcharts-legend" transform="translate(110,80)">
		<rect x="0.5" y="0.5" width="79" height="38" stroke="#909090" stroke-width="1" fill="#FFFFFF" visibility="visible">
		</rect>
		<g>
			<g>
				<g class="highcharts-legend-item" transform="translate(8,3)">
					<path fill="rgb(223, 83, 83)" fill-opacity=" .5" d="M 8 6 C 14.6 6 14.6 16 8 16 C 1.3 16 1.3 6 8 6 Z">
					</path>
					<text x="21" style="color:#333333;font-size:12px;font-weight:bold;cursor:pointer;fill:#333333;" text-anchor="start" y="15">Female
					</text>
				</g>
				<g class="highcharts-legend-item" transform="translate(8,17)">
					<path fill="rgb(119, 152, 191)" fill-opacity=" .5" d="M 8 6 L 13 11 8 16 3 11 Z">
					</path>
					<text x="21" y="15" style="color:#333333;font-size:12px;font-weight:bold;cursor:pointer;fill:#333333;" text-anchor="start">Male
					</text>
				</g>
			</g>
		</g>
	</g>
	<g class="highcharts-axis-labels highcharts-xaxis-labels">
		<text x="70" style="color:#606060;cursor:default;font-size:11px;fill:#606060;width:74px;text-overflow:clip;" text-anchor="middle" transform="translate(0,0)" y="364" opacity="1">140
		</text>
		<text x="154" style="color:#606060;cursor:default;font-size:11px;fill:#606060;width:74px;text-overflow:clip;" text-anchor="middle" transform="translate(0,0)" y="364" opacity="1">150
		</text>
		<text x="238" style="color:#606060;cursor:default;font-size:11px;fill:#606060;width:74px;text-overflow:clip;" text-anchor="middle" transform="translate(0,0)" y="364" opacity="1">160
		</text>
		<text x="322" style="color:#606060;cursor:default;font-size:11px;fill:#606060;width:74px;text-overflow:clip;" text-anchor="middle" transform="translate(0,0)" y="364" opacity="1">170
		</text>
		<text x="406" style="color:#606060;cursor:default;font-size:11px;fill:#606060;width:74px;text-overflow:clip;" text-anchor="middle" transform="translate(0,0)" y="364" opacity="1">180
		</text>
		<text x="490" style="color:#606060;cursor:default;font-size:11px;fill:#606060;width:74px;text-overflow:clip;" text-anchor="middle" transform="translate(0,0)" y="364" opacity="1">190
		</text>
		<text x="563.5" style="color:#606060;cursor:default;font-size:11px;fill:#606060;width:74px;text-overflow:clip;" text-anchor="middle" transform="translate(0,0)" y="364" opacity="1">200
		</text>
	</g>
	<g class="highcharts-axis-labels highcharts-yaxis-labels">
		<text x="55" style="color:#606060;cursor:default;font-size:11px;fill:#606060;width:183px;text-overflow:clip;" text-anchor="end" transform="translate(0,0)" y="350" opacity="1">20
		</text>
		<text x="55" style="color:#606060;cursor:default;font-size:11px;fill:#606060;width:183px;text-overflow:clip;" text-anchor="end" transform="translate(0,0)" y="302" opacity="1">40
		</text>
		<text x="55" style="color:#606060;cursor:default;font-size:11px;fill:#606060;width:183px;text-overflow:clip;" text-anchor="end" transform="translate(0,0)" y="255" opacity="1">60
		</text>
		<text x="55" style="color:#606060;cursor:default;font-size:11px;fill:#606060;width:183px;text-overflow:clip;" text-anchor="end" transform="translate(0,0)" y="208" opacity="1">80
		</text>
		<text x="55" style="color:#606060;cursor:default;font-size:11px;fill:#606060;width:183px;text-overflow:clip;" text-anchor="end" transform="translate(0,0)" y="160" opacity="1">100
		</text>
		<text x="55" style="color:#606060;cursor:default;font-size:11px;fill:#606060;width:183px;text-overflow:clip;" text-anchor="end" transform="translate(0,0)" y="113" opacity="1">120
		</text>
		<text x="55" style="color:#606060;cursor:default;font-size:11px;fill:#606060;width:183px;text-overflow:clip;" text-anchor="end" transform="translate(0,0)" y="66" opacity="1">140
		</text>
	</g>
	<g class="highcharts-tooltip" style="cursor:default;padding:0;pointer-events:none;white-space:nowrap;" transform="translate(0,-9999)">
		<path fill="none" d="M 3.5 0.5 L 13.5 0.5 C 16.5 0.5 16.5 0.5 16.5 3.5 L 16.5 13.5 C 16.5 16.5 16.5 16.5 13.5 16.5 L 3.5 16.5 C 0.5 16.5 0.5 16.5 0.5 13.5 L 0.5 3.5 C 0.5 0.5 0.5 0.5 3.5 0.5"  stroke="black" stroke-opacity="0.0" stroke-width="5" transform="translate(1, 1)">
		</path>
		<path fill="none" d="M 3.5 0.5 L 13.5 0.5 C 16.5 0.5 16.5 0.5 16.5 3.5 L 16.5 13.5 C 16.5 16.5 16.5 16.5 13.5 16.5 L 3.5 16.5 C 0.5 16.5 0.5 16.5 0.5 13.5 L 0.5 3.5 C 0.5 0.5 0.5 0.5 3.5 0.5"  stroke="black" stroke-opacity="0.0" stroke-width="3" transform="translate(1, 1)">
		</path>
		<path fill="none" d="M 3.5 0.5 L 13.5 0.5 C 16.5 0.5 16.5 0.5 16.5 3.5 L 16.5 13.5 C 16.5 16.5 16.5 16.5 13.5 16.5 L 3.5 16.5 C 0.5 16.5 0.5 16.5 0.5 13.5 L 0.5 3.5 C 0.5 0.5 0.5 0.5 3.5 0.5"  stroke="black" stroke-opacity="0.1" stroke-width="1" transform="translate(1, 1)">
		</path>
		<path fill="rgb(249, 249, 249)" fill-opacity=" .85" d="M 3.5 0.5 L 13.5 0.5 C 16.5 0.5 16.5 0.5 16.5 3.5 L 16.5 13.5 C 16.5 16.5 16.5 16.5 13.5 16.5 L 3.5 16.5 C 0.5 16.5 0.5 16.5 0.5 13.5 L 0.5 3.5 C 0.5 0.5 0.5 0.5 3.5 0.5">
		</path>
		<text x="8" style="font-size:12px;color:#333333;fill:#333333;" y="20">
		</text>
	</g>
</svg>